<mxfile host="app.diagrams.net" modified="2021-02-28T10:21:49.005Z" agent="5.0 (Windows NT 10.0; WOW64) AppleWebKit/537.36 (KHTML, like Gecko) Chrome/86.0.4240.75 Safari/537.36" etag="vKvtDI4udCrkjjmOYvOi" version="14.4.3" type="github" pages="7">
  <diagram id="VdLGZPCe84FoVswAMfTZ" name="Page-1">
    <mxGraphModel dx="1632" dy="1512" grid="1" gridSize="10" guides="1" tooltips="1" connect="1" arrows="1" fold="1" page="1" pageScale="1" pageWidth="850" pageHeight="1100" math="0" shadow="0">
      <root>
        <mxCell id="0" />
        <mxCell id="1" parent="0" />
        <mxCell id="ypW-tspVXmiVovdtBrpO-55" value="" style="rounded=0;whiteSpace=wrap;html=1;dashed=1;" parent="1" vertex="1">
          <mxGeometry x="-30" y="-210" width="2610" height="1500" as="geometry" />
        </mxCell>
        <mxCell id="ypW-tspVXmiVovdtBrpO-41" value="Manage Products, Promotions, Supplier, Inventory" style="edgeStyle=orthogonalEdgeStyle;curved=1;orthogonalLoop=1;jettySize=auto;html=1;exitX=0.5;exitY=1;exitDx=0;exitDy=0;exitPerimeter=0;entryX=0.5;entryY=0;entryDx=0;entryDy=0;entryPerimeter=0;dashed=1;" parent="1" source="ypW-tspVXmiVovdtBrpO-1" target="ypW-tspVXmiVovdtBrpO-13" edge="1">
          <mxGeometry x="-0.4633" y="-35" relative="1" as="geometry">
            <mxPoint as="offset" />
          </mxGeometry>
        </mxCell>
        <mxCell id="ypW-tspVXmiVovdtBrpO-47" style="edgeStyle=orthogonalEdgeStyle;curved=1;orthogonalLoop=1;jettySize=auto;html=1;exitX=0.5;exitY=1;exitDx=0;exitDy=0;exitPerimeter=0;dashed=1;entryX=0.5;entryY=0;entryDx=0;entryDy=0;entryPerimeter=0;" parent="1" source="ypW-tspVXmiVovdtBrpO-1" target="ypW-tspVXmiVovdtBrpO-2" edge="1">
          <mxGeometry relative="1" as="geometry">
            <mxPoint x="70" y="10" as="targetPoint" />
          </mxGeometry>
        </mxCell>
        <object placeholders="1" c4Name="Admin Portal" c4Type="Container" c4Technology="ReactJS" c4Description="Responsive website for Admin to Manage the Admin Functionalities like Managing Product , Promotions, Partners, Suppliers" label="&lt;b&gt;%c4Name%&lt;/b&gt;&lt;div&gt;[%c4Type%: %c4Technology%]&lt;/div&gt;&lt;br&gt;&lt;div&gt;%c4Description%&lt;/div&gt;" id="ypW-tspVXmiVovdtBrpO-1">
          <mxCell style="rounded=1;whiteSpace=wrap;html=1;labelBackgroundColor=none;fillColor=#438DD5;fontColor=#ffffff;align=center;arcSize=10;strokeColor=#3C7FC0;metaEdit=1;metaData={&quot;c4Type&quot;:{&quot;editable&quot;:false}};points=[[0.25,0,0],[0.5,0,0],[0.75,0,0],[1,0.25,0],[1,0.5,0],[1,0.75,0],[0.75,1,0],[0.5,1,0],[0.25,1,0],[0,0.75,0],[0,0.5,0],[0,0.25,0]];" parent="1" vertex="1">
            <mxGeometry x="1350" y="-280" width="180" height="110" as="geometry" />
          </mxCell>
        </object>
        <mxCell id="ypW-tspVXmiVovdtBrpO-32" value="Get and Cache Static Content" style="edgeStyle=orthogonalEdgeStyle;curved=1;orthogonalLoop=1;jettySize=auto;html=1;exitX=0.5;exitY=1;exitDx=0;exitDy=0;exitPerimeter=0;dashed=1;" parent="1" source="ypW-tspVXmiVovdtBrpO-2" target="ypW-tspVXmiVovdtBrpO-3" edge="1">
          <mxGeometry x="-0.7288" relative="1" as="geometry">
            <mxPoint as="offset" />
          </mxGeometry>
        </mxCell>
        <object placeholders="1" c4Name="Caching Platform" c4Type="Container" c4Technology="AWS CDN" c4Description="CDN to cache the static content" label="&lt;b&gt;%c4Name%&lt;/b&gt;&lt;div&gt;[%c4Type%: %c4Technology%]&lt;/div&gt;&lt;br&gt;&lt;div&gt;%c4Description%&lt;/div&gt;" id="ypW-tspVXmiVovdtBrpO-2">
          <mxCell style="rounded=1;whiteSpace=wrap;html=1;labelBackgroundColor=none;fillColor=#438DD5;fontColor=#ffffff;align=center;arcSize=10;strokeColor=#3C7FC0;metaEdit=1;metaData={&quot;c4Type&quot;:{&quot;editable&quot;:false}};points=[[0.25,0,0],[0.5,0,0],[0.75,0,0],[1,0.25,0],[1,0.5,0],[1,0.75,0],[0.75,1,0],[0.5,1,0],[0.25,1,0],[0,0.75,0],[0,0.5,0],[0,0.25,0]];" parent="1" vertex="1">
            <mxGeometry x="40" y="-30" width="160" height="110.00000000000001" as="geometry" />
          </mxCell>
        </object>
        <mxCell id="ypW-tspVXmiVovdtBrpO-31" style="edgeStyle=orthogonalEdgeStyle;curved=1;orthogonalLoop=1;jettySize=auto;html=1;exitX=0.5;exitY=1;exitDx=0;exitDy=0;exitPerimeter=0;entryX=0.5;entryY=0;entryDx=0;entryDy=0;entryPerimeter=0;dashed=1;" parent="1" source="ypW-tspVXmiVovdtBrpO-3" target="ypW-tspVXmiVovdtBrpO-17" edge="1">
          <mxGeometry relative="1" as="geometry" />
        </mxCell>
        <mxCell id="ypW-tspVXmiVovdtBrpO-102" value="Store Static Content" style="edgeLabel;html=1;align=center;verticalAlign=middle;resizable=0;points=[];" parent="ypW-tspVXmiVovdtBrpO-31" vertex="1" connectable="0">
          <mxGeometry x="-0.4072" y="-4" relative="1" as="geometry">
            <mxPoint as="offset" />
          </mxGeometry>
        </mxCell>
        <mxCell id="ypW-tspVXmiVovdtBrpO-33" style="edgeStyle=orthogonalEdgeStyle;curved=1;orthogonalLoop=1;jettySize=auto;html=1;exitX=1;exitY=0.5;exitDx=0;exitDy=0;exitPerimeter=0;entryX=0;entryY=0.75;entryDx=0;entryDy=0;entryPerimeter=0;dashed=1;" parent="1" source="ypW-tspVXmiVovdtBrpO-3" target="ypW-tspVXmiVovdtBrpO-13" edge="1">
          <mxGeometry relative="1" as="geometry" />
        </mxCell>
        <mxCell id="ypW-tspVXmiVovdtBrpO-103" value="Get Products" style="edgeLabel;html=1;align=center;verticalAlign=middle;resizable=0;points=[];" parent="ypW-tspVXmiVovdtBrpO-33" vertex="1" connectable="0">
          <mxGeometry x="-0.4085" y="21" relative="1" as="geometry">
            <mxPoint x="-80" y="21" as="offset" />
          </mxGeometry>
        </mxCell>
        <object placeholders="1" c4Name="Content Mgmt Tool" c4Type="Container" c4Technology="technology" c4Description="Description" label="&lt;b&gt;%c4Name%&lt;/b&gt;&lt;div&gt;[%c4Type%: %c4Technology%]&lt;/div&gt;&lt;br&gt;&lt;div&gt;%c4Description%&lt;/div&gt;" id="ypW-tspVXmiVovdtBrpO-3">
          <mxCell style="rounded=1;whiteSpace=wrap;html=1;labelBackgroundColor=none;fillColor=#438DD5;fontColor=#ffffff;align=center;arcSize=10;strokeColor=#3C7FC0;metaEdit=1;metaData={&quot;c4Type&quot;:{&quot;editable&quot;:false}};points=[[0.25,0,0],[0.5,0,0],[0.75,0,0],[1,0.25,0],[1,0.5,0],[1,0.75,0],[0.75,1,0],[0.5,1,0],[0.25,1,0],[0,0.75,0],[0,0.5,0],[0,0.25,0]];" parent="1" vertex="1">
            <mxGeometry x="50" y="370" width="150" height="110" as="geometry" />
          </mxCell>
        </object>
        <mxCell id="ypW-tspVXmiVovdtBrpO-40" style="edgeStyle=orthogonalEdgeStyle;curved=1;orthogonalLoop=1;jettySize=auto;html=1;exitX=0.5;exitY=1;exitDx=0;exitDy=0;exitPerimeter=0;entryX=0.5;entryY=0;entryDx=0;entryDy=0;entryPerimeter=0;dashed=1;" parent="1" source="ypW-tspVXmiVovdtBrpO-4" target="ypW-tspVXmiVovdtBrpO-13" edge="1">
          <mxGeometry relative="1" as="geometry" />
        </mxCell>
        <mxCell id="ypW-tspVXmiVovdtBrpO-108" value="View Products, Promotions &amp;amp; &lt;br&gt;Recommendations, Manage Orders" style="edgeLabel;html=1;align=center;verticalAlign=middle;resizable=0;points=[];" parent="ypW-tspVXmiVovdtBrpO-40" vertex="1" connectable="0">
          <mxGeometry x="-0.4816" y="18" relative="1" as="geometry">
            <mxPoint as="offset" />
          </mxGeometry>
        </mxCell>
        <mxCell id="ypW-tspVXmiVovdtBrpO-44" style="edgeStyle=orthogonalEdgeStyle;curved=1;orthogonalLoop=1;jettySize=auto;html=1;exitX=0.5;exitY=1;exitDx=0;exitDy=0;exitPerimeter=0;entryX=0.5;entryY=0;entryDx=0;entryDy=0;entryPerimeter=0;dashed=1;" parent="1" source="ypW-tspVXmiVovdtBrpO-4" target="ypW-tspVXmiVovdtBrpO-2" edge="1">
          <mxGeometry relative="1" as="geometry" />
        </mxCell>
        <object placeholders="1" c4Name="CrewApp" c4Type="Container" c4Technology="React Native" c4Description="Hybrid Mobile App used by Crew" label="&lt;b&gt;%c4Name%&lt;/b&gt;&lt;div&gt;[%c4Type%: %c4Technology%]&lt;/div&gt;&lt;br&gt;&lt;div&gt;%c4Description%&lt;/div&gt;" id="ypW-tspVXmiVovdtBrpO-4">
          <mxCell style="rounded=1;whiteSpace=wrap;html=1;labelBackgroundColor=none;fillColor=#438DD5;fontColor=#ffffff;align=center;arcSize=10;strokeColor=#3C7FC0;metaEdit=1;metaData={&quot;c4Type&quot;:{&quot;editable&quot;:false}};points=[[0.25,0,0],[0.5,0,0],[0.75,0,0],[1,0.25,0],[1,0.5,0],[1,0.75,0],[0.75,1,0],[0.5,1,0],[0.25,1,0],[0,0.75,0],[0,0.5,0],[0,0.25,0]];" parent="1" vertex="1">
            <mxGeometry x="560" y="-280" width="160" height="110.00000000000001" as="geometry" />
          </mxCell>
        </object>
        <mxCell id="ypW-tspVXmiVovdtBrpO-113" value="Get Recommendations" style="edgeStyle=orthogonalEdgeStyle;curved=1;orthogonalLoop=1;jettySize=auto;html=1;exitX=0;exitY=0.75;exitDx=0;exitDy=0;exitPerimeter=0;entryX=1;entryY=0.75;entryDx=0;entryDy=0;entryPerimeter=0;dashed=1;" parent="1" source="ypW-tspVXmiVovdtBrpO-5" target="ypW-tspVXmiVovdtBrpO-12" edge="1">
          <mxGeometry x="-0.598" relative="1" as="geometry">
            <Array as="points">
              <mxPoint x="1640" y="600" />
              <mxPoint x="1230" y="600" />
              <mxPoint x="1230" y="570" />
              <mxPoint x="753" y="570" />
            </Array>
            <mxPoint as="offset" />
          </mxGeometry>
        </mxCell>
        <object placeholders="1" c4Name="Data Analytics Platform" c4Type="Container" c4Technology="Snowflake, PowerBI" c4Description="Description" label="&lt;b&gt;%c4Name%&lt;/b&gt;&lt;div&gt;[%c4Type%: %c4Technology%]&lt;/div&gt;&lt;br&gt;&lt;div&gt;%c4Description%&lt;/div&gt;" id="ypW-tspVXmiVovdtBrpO-5">
          <mxCell style="rounded=1;whiteSpace=wrap;html=1;labelBackgroundColor=none;fillColor=#438DD5;fontColor=#ffffff;align=center;arcSize=10;strokeColor=#3C7FC0;metaEdit=1;metaData={&quot;c4Type&quot;:{&quot;editable&quot;:false}};points=[[0.25,0,0],[0.5,0,0],[0.75,0,0],[1,0.25,0],[1,0.5,0],[1,0.75,0],[0.75,1,0],[0.5,1,0],[0.25,1,0],[0,0.75,0],[0,0.5,0],[0,0.25,0]];" parent="1" vertex="1">
            <mxGeometry x="1640" y="445" width="160" height="110.00000000000001" as="geometry" />
          </mxCell>
        </object>
        <object placeholders="1" c4Name="Identity &amp; Security Service" c4Type="Container" c4Technology="AzureAD B2B &amp; B2C / Okta**" c4Description="Handles Authentication and Handles Authentication and Authorisation" label="&lt;b&gt;%c4Name%&lt;/b&gt;&lt;div&gt;[%c4Type%: %c4Technology%]&lt;/div&gt;&lt;br&gt;&lt;div&gt;%c4Description%&lt;/div&gt;" id="ypW-tspVXmiVovdtBrpO-6">
          <mxCell style="rounded=1;whiteSpace=wrap;html=1;labelBackgroundColor=none;fillColor=#438DD5;fontColor=#ffffff;align=center;arcSize=10;strokeColor=#3C7FC0;metaEdit=1;metaData={&quot;c4Type&quot;:{&quot;editable&quot;:false}};points=[[0.25,0,0],[0.5,0,0],[0.75,0,0],[1,0.25,0],[1,0.5,0],[1,0.75,0],[0.75,1,0],[0.5,1,0],[0.25,1,0],[0,0.75,0],[0,0.5,0],[0,0.25,0]];" parent="1" vertex="1">
            <mxGeometry x="-350" y="-280" width="160" height="110.00000000000001" as="geometry" />
          </mxCell>
        </object>
        <mxCell id="ypW-tspVXmiVovdtBrpO-39" style="edgeStyle=orthogonalEdgeStyle;curved=1;orthogonalLoop=1;jettySize=auto;html=1;exitX=0.5;exitY=1;exitDx=0;exitDy=0;exitPerimeter=0;entryX=0.5;entryY=0;entryDx=0;entryDy=0;entryPerimeter=0;dashed=1;" parent="1" source="ypW-tspVXmiVovdtBrpO-7" target="ypW-tspVXmiVovdtBrpO-13" edge="1">
          <mxGeometry relative="1" as="geometry" />
        </mxCell>
        <mxCell id="ypW-tspVXmiVovdtBrpO-109" value="View Products, Promotions &amp;amp; &lt;br&gt;Recommendations, Manage Orders" style="edgeLabel;html=1;align=center;verticalAlign=middle;resizable=0;points=[];" parent="ypW-tspVXmiVovdtBrpO-39" vertex="1" connectable="0">
          <mxGeometry x="-0.3354" y="21" relative="1" as="geometry">
            <mxPoint x="1" as="offset" />
          </mxGeometry>
        </mxCell>
        <mxCell id="ypW-tspVXmiVovdtBrpO-43" style="edgeStyle=orthogonalEdgeStyle;curved=1;orthogonalLoop=1;jettySize=auto;html=1;exitX=0.5;exitY=1;exitDx=0;exitDy=0;exitPerimeter=0;entryX=0.5;entryY=0;entryDx=0;entryDy=0;entryPerimeter=0;dashed=1;" parent="1" source="ypW-tspVXmiVovdtBrpO-7" target="ypW-tspVXmiVovdtBrpO-2" edge="1">
          <mxGeometry relative="1" as="geometry" />
        </mxCell>
        <object placeholders="1" c4Name="IFE App" c4Type="Container" c4Technology="Native App (Android)" c4Description="IFE App wrapper integrating with IFE Library/API" label="&lt;b&gt;%c4Name%&lt;/b&gt;&lt;div&gt;[%c4Type%: %c4Technology%]&lt;/div&gt;&lt;br&gt;&lt;div&gt;%c4Description%&lt;/div&gt;" id="ypW-tspVXmiVovdtBrpO-7">
          <mxCell style="rounded=1;whiteSpace=wrap;html=1;labelBackgroundColor=none;fillColor=#438DD5;fontColor=#ffffff;align=center;arcSize=10;strokeColor=#3C7FC0;metaEdit=1;metaData={&quot;c4Type&quot;:{&quot;editable&quot;:false}};points=[[0.25,0,0],[0.5,0,0],[0.75,0,0],[1,0.25,0],[1,0.5,0],[1,0.75,0],[0.75,1,0],[0.5,1,0],[0.25,1,0],[0,0.75,0],[0,0.5,0],[0,0.25,0]];" parent="1" vertex="1">
            <mxGeometry x="250" y="-280" width="160" height="110.00000000000001" as="geometry" />
          </mxCell>
        </object>
        <mxCell id="ypW-tspVXmiVovdtBrpO-22" value="Save Master Data" style="edgeStyle=orthogonalEdgeStyle;curved=1;orthogonalLoop=1;jettySize=auto;html=1;exitX=1;exitY=0.5;exitDx=0;exitDy=0;exitPerimeter=0;entryX=0.5;entryY=0;entryDx=0;entryDy=0;entryPerimeter=0;dashed=1;" parent="1" source="ypW-tspVXmiVovdtBrpO-8" target="ypW-tspVXmiVovdtBrpO-11" edge="1">
          <mxGeometry x="-0.5111" y="-30" relative="1" as="geometry">
            <mxPoint as="offset" />
          </mxGeometry>
        </mxCell>
        <object placeholders="1" c4Name="Master Data Mgmt" c4Type="Container" c4Technology="SpringBoot" c4Description="Master Data Mgmt to manage Currency, Store location, Product Categories" label="&lt;b&gt;%c4Name%&lt;/b&gt;&lt;div&gt;[%c4Type%: %c4Technology%]&lt;/div&gt;&lt;br&gt;&lt;div&gt;%c4Description%&lt;/div&gt;" id="ypW-tspVXmiVovdtBrpO-8">
          <mxCell style="rounded=1;whiteSpace=wrap;html=1;labelBackgroundColor=none;fillColor=#438DD5;fontColor=#ffffff;align=center;arcSize=10;strokeColor=#3C7FC0;metaEdit=1;metaData={&quot;c4Type&quot;:{&quot;editable&quot;:false}};points=[[0.25,0,0],[0.5,0,0],[0.75,0,0],[1,0.25,0],[1,0.5,0],[1,0.75,0],[0.75,1,0],[0.5,1,0],[0.25,1,0],[0,0.75,0],[0,0.5,0],[0,0.25,0]];" parent="1" vertex="1">
            <mxGeometry x="250" y="625" width="200" height="110" as="geometry" />
          </mxCell>
        </object>
        <mxCell id="ypW-tspVXmiVovdtBrpO-94" value="Sends Email, SMS to customer" style="edgeStyle=orthogonalEdgeStyle;curved=1;orthogonalLoop=1;jettySize=auto;html=1;exitX=0.5;exitY=1;exitDx=0;exitDy=0;exitPerimeter=0;dashed=1;" parent="1" source="ypW-tspVXmiVovdtBrpO-9" target="ypW-tspVXmiVovdtBrpO-72" edge="1">
          <mxGeometry relative="1" as="geometry" />
        </mxCell>
        <object placeholders="1" c4Name="Notification Manager/System" c4Type="Container" c4Technology="SpringBoot" c4Description="Notification Manager making use of messaging gateways" label="&lt;b&gt;%c4Name%&lt;/b&gt;&lt;div&gt;[%c4Type%: %c4Technology%]&lt;/div&gt;&lt;br&gt;&lt;div&gt;%c4Description%&lt;/div&gt;" id="ypW-tspVXmiVovdtBrpO-9">
          <mxCell style="rounded=1;whiteSpace=wrap;html=1;labelBackgroundColor=none;fillColor=#438DD5;fontColor=#ffffff;align=center;arcSize=10;strokeColor=#3C7FC0;metaEdit=1;metaData={&quot;c4Type&quot;:{&quot;editable&quot;:false}};points=[[0.25,0,0],[0.5,0,0],[0.75,0,0],[1,0.25,0],[1,0.5,0],[1,0.75,0],[0.75,1,0],[0.5,1,0],[0.25,1,0],[0,0.75,0],[0,0.5,0],[0,0.25,0]];" parent="1" vertex="1">
            <mxGeometry x="-320" y="780" width="160" height="110.00000000000001" as="geometry" />
          </mxCell>
        </object>
        <mxCell id="ypW-tspVXmiVovdtBrpO-25" value="Get Product Details, &lt;br&gt;Customer Profile, Crew Profile" style="edgeStyle=orthogonalEdgeStyle;curved=1;orthogonalLoop=1;jettySize=auto;html=1;exitX=0.5;exitY=0;exitDx=0;exitDy=0;exitPerimeter=0;entryX=0.574;entryY=1.012;entryDx=0;entryDy=0;entryPerimeter=0;dashed=1;" parent="1" source="ypW-tspVXmiVovdtBrpO-11" target="ypW-tspVXmiVovdtBrpO-12" edge="1">
          <mxGeometry x="0.7874" relative="1" as="geometry">
            <mxPoint as="offset" />
          </mxGeometry>
        </mxCell>
        <object placeholders="1" c4Type="Database" c4Technology="Aurora DB" c4Description="Order Database holding Orders, Inventory, Fulfilment Details" label="%c4Type%&lt;div&gt;[Container:&amp;nbsp;%c4Technology%]&lt;/div&gt;&lt;br&gt;&lt;div&gt;%c4Description%&lt;/div&gt;" id="ypW-tspVXmiVovdtBrpO-11">
          <mxCell style="shape=cylinder;whiteSpace=wrap;html=1;boundedLbl=1;rounded=0;labelBackgroundColor=none;fillColor=#438DD5;fontSize=12;fontColor=#ffffff;align=center;strokeColor=#3C7FC0;metaEdit=1;points=[[0.5,0,0],[1,0.25,0],[1,0.5,0],[1,0.75,0],[0.5,1,0],[0,0.75,0],[0,0.5,0],[0,0.25,0]];metaData={&quot;c4Type&quot;:{&quot;editable&quot;:false}};" parent="1" vertex="1">
            <mxGeometry x="570" y="930" width="160" height="140" as="geometry" />
          </mxCell>
        </object>
        <object placeholders="1" c4Name="Recommendation Engine" c4Type="Container" c4Technology="DataBricks/Alteryx/Dataiku***" c4Description="Engine responsible for Recommendation to Crew, Customer &amp; Mgmt" label="&lt;b&gt;%c4Name%&lt;/b&gt;&lt;div&gt;[%c4Type%: %c4Technology%]&lt;/div&gt;&lt;br&gt;&lt;div&gt;%c4Description%&lt;/div&gt;" id="ypW-tspVXmiVovdtBrpO-12">
          <mxCell style="rounded=1;whiteSpace=wrap;html=1;labelBackgroundColor=none;fillColor=#438DD5;fontColor=#ffffff;align=center;arcSize=10;strokeColor=#3C7FC0;metaEdit=1;metaData={&quot;c4Type&quot;:{&quot;editable&quot;:false}};points=[[0.25,0,0],[0.5,0,0],[0.75,0,0],[1,0.25,0],[1,0.5,0],[1,0.75,0],[0.75,1,0],[0.5,1,0],[0.25,1,0],[0,0.75,0],[0,0.5,0],[0,0.25,0]];" parent="1" vertex="1">
            <mxGeometry x="547.5" y="470" width="205" height="110" as="geometry" />
          </mxCell>
        </object>
        <mxCell id="ypW-tspVXmiVovdtBrpO-26" value="Get Recommendations &amp;amp; &lt;br&gt;send&amp;nbsp; orders" style="edgeStyle=orthogonalEdgeStyle;curved=1;orthogonalLoop=1;jettySize=auto;html=1;exitX=0.5;exitY=1;exitDx=0;exitDy=0;exitPerimeter=0;dashed=1;" parent="1" source="ypW-tspVXmiVovdtBrpO-13" target="ypW-tspVXmiVovdtBrpO-12" edge="1">
          <mxGeometry x="-0.203" y="-20" relative="1" as="geometry">
            <mxPoint as="offset" />
          </mxGeometry>
        </mxCell>
        <mxCell id="ypW-tspVXmiVovdtBrpO-27" style="edgeStyle=orthogonalEdgeStyle;curved=1;orthogonalLoop=1;jettySize=auto;html=1;exitX=0;exitY=0.5;exitDx=0;exitDy=0;exitPerimeter=0;dashed=1;" parent="1" source="ypW-tspVXmiVovdtBrpO-13" target="ypW-tspVXmiVovdtBrpO-6" edge="1">
          <mxGeometry relative="1" as="geometry" />
        </mxCell>
        <mxCell id="ypW-tspVXmiVovdtBrpO-35" value="Send SMS &amp; Email" style="edgeStyle=orthogonalEdgeStyle;curved=1;orthogonalLoop=1;jettySize=auto;html=1;exitX=0.25;exitY=1;exitDx=0;exitDy=0;exitPerimeter=0;dashed=1;" parent="1" source="ypW-tspVXmiVovdtBrpO-13" target="ypW-tspVXmiVovdtBrpO-9" edge="1">
          <mxGeometry x="0.9146" relative="1" as="geometry">
            <mxPoint as="offset" />
          </mxGeometry>
        </mxCell>
        <mxCell id="ypW-tspVXmiVovdtBrpO-48" style="edgeStyle=orthogonalEdgeStyle;curved=1;orthogonalLoop=1;jettySize=auto;html=1;exitX=0.5;exitY=1;exitDx=0;exitDy=0;exitPerimeter=0;entryX=0.5;entryY=0;entryDx=0;entryDy=0;entryPerimeter=0;dashed=1;" parent="1" source="ypW-tspVXmiVovdtBrpO-13" target="ypW-tspVXmiVovdtBrpO-5" edge="1">
          <mxGeometry relative="1" as="geometry" />
        </mxCell>
        <mxCell id="ypW-tspVXmiVovdtBrpO-51" style="edgeStyle=orthogonalEdgeStyle;curved=1;orthogonalLoop=1;jettySize=auto;html=1;exitX=1;exitY=0.5;exitDx=0;exitDy=0;exitPerimeter=0;entryX=0;entryY=0.5;entryDx=0;entryDy=0;entryPerimeter=0;dashed=1;" parent="1" source="ypW-tspVXmiVovdtBrpO-13" target="ypW-tspVXmiVovdtBrpO-19" edge="1">
          <mxGeometry relative="1" as="geometry" />
        </mxCell>
        <mxCell id="ypW-tspVXmiVovdtBrpO-104" value="Send Order details" style="edgeLabel;html=1;align=center;verticalAlign=middle;resizable=0;points=[];" parent="ypW-tspVXmiVovdtBrpO-51" vertex="1" connectable="0">
          <mxGeometry x="0.2811" relative="1" as="geometry">
            <mxPoint y="-1" as="offset" />
          </mxGeometry>
        </mxCell>
        <mxCell id="ypW-tspVXmiVovdtBrpO-81" value="Get Loyalty Points and update the utilisation" style="edgeStyle=orthogonalEdgeStyle;curved=1;orthogonalLoop=1;jettySize=auto;html=1;exitX=1;exitY=0.5;exitDx=0;exitDy=0;exitPerimeter=0;dashed=1;" parent="1" source="ypW-tspVXmiVovdtBrpO-13" target="ypW-tspVXmiVovdtBrpO-71" edge="1">
          <mxGeometry x="0.6247" relative="1" as="geometry">
            <mxPoint as="offset" />
          </mxGeometry>
        </mxCell>
        <mxCell id="ypW-tspVXmiVovdtBrpO-84" value="Get Orders, Inventory &lt;br&gt;updates via Event Streaming" style="edgeStyle=orthogonalEdgeStyle;curved=1;orthogonalLoop=1;jettySize=auto;html=1;exitX=1;exitY=0.5;exitDx=0;exitDy=0;exitPerimeter=0;entryX=0;entryY=0.5;entryDx=0;entryDy=0;entryPerimeter=0;dashed=1;" parent="1" source="ypW-tspVXmiVovdtBrpO-13" target="ypW-tspVXmiVovdtBrpO-61" edge="1">
          <mxGeometry relative="1" as="geometry" />
        </mxCell>
        <mxCell id="ypW-tspVXmiVovdtBrpO-85" value="Handles Authentication and Authorisation" style="edgeStyle=orthogonalEdgeStyle;curved=1;orthogonalLoop=1;jettySize=auto;html=1;exitX=0;exitY=0.5;exitDx=0;exitDy=0;exitPerimeter=0;entryX=1;entryY=0.5;entryDx=0;entryDy=0;entryPerimeter=0;dashed=1;" parent="1" source="ypW-tspVXmiVovdtBrpO-6" target="ypW-tspVXmiVovdtBrpO-68" edge="1">
          <mxGeometry relative="1" as="geometry" />
        </mxCell>
        <mxCell id="ypW-tspVXmiVovdtBrpO-87" value="Sends Loading Information for a Flight" style="edgeStyle=orthogonalEdgeStyle;curved=1;orthogonalLoop=1;jettySize=auto;html=1;exitX=1;exitY=0.5;exitDx=0;exitDy=0;exitPerimeter=0;entryX=0;entryY=0.5;entryDx=0;entryDy=0;entryPerimeter=0;dashed=1;" parent="1" source="ypW-tspVXmiVovdtBrpO-13" target="ypW-tspVXmiVovdtBrpO-62" edge="1">
          <mxGeometry x="0.6908" y="-15" relative="1" as="geometry">
            <mxPoint as="offset" />
          </mxGeometry>
        </mxCell>
        <mxCell id="ypW-tspVXmiVovdtBrpO-90" value="Gets Employee Profile, DDS Limit &amp; Sends DDS Utilisation" style="edgeStyle=orthogonalEdgeStyle;curved=1;orthogonalLoop=1;jettySize=auto;html=1;exitX=0;exitY=0.75;exitDx=0;exitDy=0;exitPerimeter=0;entryX=1;entryY=0.5;entryDx=0;entryDy=0;entryPerimeter=0;dashed=1;" parent="1" source="ypW-tspVXmiVovdtBrpO-13" target="ypW-tspVXmiVovdtBrpO-67" edge="1">
          <mxGeometry x="0.6709" y="-5" relative="1" as="geometry">
            <mxPoint as="offset" />
          </mxGeometry>
        </mxCell>
        <mxCell id="ypW-tspVXmiVovdtBrpO-91" value="Gets Flight Schedule" style="edgeStyle=orthogonalEdgeStyle;curved=1;orthogonalLoop=1;jettySize=auto;html=1;exitX=0;exitY=0.75;exitDx=0;exitDy=0;exitPerimeter=0;entryX=1;entryY=0.5;entryDx=0;entryDy=0;entryPerimeter=0;dashed=1;" parent="1" source="ypW-tspVXmiVovdtBrpO-13" target="ypW-tspVXmiVovdtBrpO-66" edge="1">
          <mxGeometry x="0.6857" relative="1" as="geometry">
            <mxPoint as="offset" />
          </mxGeometry>
        </mxCell>
        <mxCell id="ypW-tspVXmiVovdtBrpO-92" value="Gets Crew Roster Information" style="edgeStyle=orthogonalEdgeStyle;curved=1;orthogonalLoop=1;jettySize=auto;html=1;exitX=0;exitY=0.75;exitDx=0;exitDy=0;exitPerimeter=0;dashed=1;" parent="1" source="ypW-tspVXmiVovdtBrpO-13" target="ypW-tspVXmiVovdtBrpO-63" edge="1">
          <mxGeometry x="0.6364" relative="1" as="geometry">
            <mxPoint as="offset" />
          </mxGeometry>
        </mxCell>
        <mxCell id="ypW-tspVXmiVovdtBrpO-93" value="Get PAX Information" style="edgeStyle=orthogonalEdgeStyle;curved=1;orthogonalLoop=1;jettySize=auto;html=1;exitX=0;exitY=0.75;exitDx=0;exitDy=0;exitPerimeter=0;entryX=1;entryY=0.5;entryDx=0;entryDy=0;entryPerimeter=0;dashed=1;" parent="1" source="ypW-tspVXmiVovdtBrpO-13" target="ypW-tspVXmiVovdtBrpO-74" edge="1">
          <mxGeometry x="0.7236" relative="1" as="geometry">
            <mxPoint as="offset" />
          </mxGeometry>
        </mxCell>
        <mxCell id="ypW-tspVXmiVovdtBrpO-98" style="edgeStyle=orthogonalEdgeStyle;curved=1;orthogonalLoop=1;jettySize=auto;html=1;exitX=1;exitY=0.5;exitDx=0;exitDy=0;exitPerimeter=0;entryX=0.5;entryY=0;entryDx=0;entryDy=0;entryPerimeter=0;dashed=1;" parent="1" source="ypW-tspVXmiVovdtBrpO-13" target="ypW-tspVXmiVovdtBrpO-97" edge="1">
          <mxGeometry relative="1" as="geometry" />
        </mxCell>
        <mxCell id="ypW-tspVXmiVovdtBrpO-99" value="Payment Processing" style="edgeLabel;html=1;align=center;verticalAlign=middle;resizable=0;points=[];" parent="ypW-tspVXmiVovdtBrpO-98" vertex="1" connectable="0">
          <mxGeometry x="0.5244" y="-1" relative="1" as="geometry">
            <mxPoint as="offset" />
          </mxGeometry>
        </mxCell>
        <mxCell id="ypW-tspVXmiVovdtBrpO-100" value="Save Products, Promotions, Inventory, &lt;br&gt;Customer Profile, Supplier Profile, Crew Profile" style="edgeStyle=orthogonalEdgeStyle;curved=1;orthogonalLoop=1;jettySize=auto;html=1;exitX=0.5;exitY=1;exitDx=0;exitDy=0;exitPerimeter=0;entryX=0.5;entryY=0;entryDx=0;entryDy=0;entryPerimeter=0;dashed=1;" parent="1" edge="1">
          <mxGeometry x="0.4236" y="-18" relative="1" as="geometry">
            <mxPoint x="800.5" y="290" as="sourcePoint" />
            <mxPoint x="1028" y="930" as="targetPoint" />
            <mxPoint as="offset" />
          </mxGeometry>
        </mxCell>
        <mxCell id="ypW-tspVXmiVovdtBrpO-101" value="Save Orders" style="edgeStyle=orthogonalEdgeStyle;curved=1;orthogonalLoop=1;jettySize=auto;html=1;exitX=0.5;exitY=1;exitDx=0;exitDy=0;exitPerimeter=0;entryX=0.5;entryY=0;entryDx=0;entryDy=0;entryPerimeter=0;dashed=1;" parent="1" source="ypW-tspVXmiVovdtBrpO-13" target="ypW-tspVXmiVovdtBrpO-11" edge="1">
          <mxGeometry x="0.3245" relative="1" as="geometry">
            <Array as="points">
              <mxPoint x="880" y="290" />
              <mxPoint x="880" y="730" />
              <mxPoint x="650" y="730" />
            </Array>
            <mxPoint as="offset" />
          </mxGeometry>
        </mxCell>
        <object placeholders="1" c4Name="Retail API Service" c4Type="Container" c4Technology="SpringBoot / Quarkus****" c4Description="Retail API Service built using Microservice &amp; Exposed via API Gateway" label="&lt;b&gt;%c4Name%&lt;/b&gt;&lt;div&gt;[%c4Type%: %c4Technology%]&lt;/div&gt;&lt;br&gt;&lt;div&gt;%c4Description%&lt;/div&gt;" id="ypW-tspVXmiVovdtBrpO-13">
          <mxCell style="rounded=1;whiteSpace=wrap;html=1;labelBackgroundColor=none;fillColor=#438DD5;fontColor=#ffffff;align=center;arcSize=10;strokeColor=#3C7FC0;metaEdit=1;metaData={&quot;c4Type&quot;:{&quot;editable&quot;:false}};points=[[0.25,0,0],[0.5,0,0],[0.75,0,0],[1,0.25,0],[1,0.5,0],[1,0.75,0],[0.75,1,0],[0.5,1,0],[0.25,1,0],[0,0.75,0],[0,0.5,0],[0,0.25,0]];" parent="1" vertex="1">
            <mxGeometry x="547.5" y="180" width="510" height="110" as="geometry" />
          </mxCell>
        </object>
        <mxCell id="ypW-tspVXmiVovdtBrpO-50" style="edgeStyle=orthogonalEdgeStyle;curved=1;orthogonalLoop=1;jettySize=auto;html=1;exitX=0.5;exitY=0;exitDx=0;exitDy=0;exitPerimeter=0;entryX=0.5;entryY=1;entryDx=0;entryDy=0;entryPerimeter=0;dashed=1;" parent="1" source="ypW-tspVXmiVovdtBrpO-14" target="ypW-tspVXmiVovdtBrpO-5" edge="1">
          <mxGeometry relative="1" as="geometry" />
        </mxCell>
        <mxCell id="ypW-tspVXmiVovdtBrpO-112" value="Get Profile Details (Customer, Supplier, Partner) via Batch" style="edgeLabel;html=1;align=center;verticalAlign=middle;resizable=0;points=[];" parent="ypW-tspVXmiVovdtBrpO-50" vertex="1" connectable="0">
          <mxGeometry x="0.529" y="58" relative="1" as="geometry">
            <mxPoint x="-1" as="offset" />
          </mxGeometry>
        </mxCell>
        <object placeholders="1" c4Type="Database" c4Technology="DynamoDB" c4Description="Retail Database holding Products, Promotions, Customer, Supplier, Partner Information, Exchange Rates" label="%c4Type%&lt;div&gt;[Container:&amp;nbsp;%c4Technology%]&lt;/div&gt;&lt;br&gt;&lt;div&gt;%c4Description%&lt;/div&gt;" id="ypW-tspVXmiVovdtBrpO-14">
          <mxCell style="shape=cylinder;whiteSpace=wrap;html=1;boundedLbl=1;rounded=0;labelBackgroundColor=none;fillColor=#438DD5;fontSize=12;fontColor=#ffffff;align=center;strokeColor=#3C7FC0;metaEdit=1;points=[[0.5,0,0],[1,0.25,0],[1,0.5,0],[1,0.75,0],[0.5,1,0],[0,0.75,0],[0,0.5,0],[0,0.25,0]];metaData={&quot;c4Type&quot;:{&quot;editable&quot;:false}};" parent="1" vertex="1">
            <mxGeometry x="950" y="930" width="160" height="140" as="geometry" />
          </mxCell>
        </object>
        <mxCell id="ypW-tspVXmiVovdtBrpO-42" style="edgeStyle=orthogonalEdgeStyle;curved=1;orthogonalLoop=1;jettySize=auto;html=1;exitX=0.5;exitY=1;exitDx=0;exitDy=0;exitPerimeter=0;dashed=1;" parent="1" source="ypW-tspVXmiVovdtBrpO-15" target="ypW-tspVXmiVovdtBrpO-13" edge="1">
          <mxGeometry relative="1" as="geometry">
            <mxPoint x="550" y="280" as="targetPoint" />
          </mxGeometry>
        </mxCell>
        <mxCell id="ypW-tspVXmiVovdtBrpO-111" value="Manage Products, Promotions, &lt;br&gt;Supplier, Inventory" style="edgeLabel;html=1;align=center;verticalAlign=middle;resizable=0;points=[];" parent="ypW-tspVXmiVovdtBrpO-42" vertex="1" connectable="0">
          <mxGeometry x="-0.4302" y="-17" relative="1" as="geometry">
            <mxPoint x="-2" as="offset" />
          </mxGeometry>
        </mxCell>
        <mxCell id="ypW-tspVXmiVovdtBrpO-45" style="edgeStyle=orthogonalEdgeStyle;curved=1;orthogonalLoop=1;jettySize=auto;html=1;exitX=0.5;exitY=1;exitDx=0;exitDy=0;exitPerimeter=0;entryX=0.5;entryY=0;entryDx=0;entryDy=0;entryPerimeter=0;dashed=1;" parent="1" source="ypW-tspVXmiVovdtBrpO-15" target="ypW-tspVXmiVovdtBrpO-2" edge="1">
          <mxGeometry relative="1" as="geometry" />
        </mxCell>
        <object placeholders="1" c4Name="Retail Store POS" c4Type="Container" c4Technology="ReactNative" c4Description="POS application at the Retail Store connected to POS device and Printer" label="&lt;b&gt;%c4Name%&lt;/b&gt;&lt;div&gt;[%c4Type%: %c4Technology%]&lt;/div&gt;&lt;br&gt;&lt;div&gt;%c4Description%&lt;/div&gt;" id="ypW-tspVXmiVovdtBrpO-15">
          <mxCell style="rounded=1;whiteSpace=wrap;html=1;labelBackgroundColor=none;fillColor=#438DD5;fontColor=#ffffff;align=center;arcSize=10;strokeColor=#3C7FC0;metaEdit=1;metaData={&quot;c4Type&quot;:{&quot;editable&quot;:false}};points=[[0.25,0,0],[0.5,0,0],[0.75,0,0],[1,0.25,0],[1,0.5,0],[1,0.75,0],[0.75,1,0],[0.5,1,0],[0.25,1,0],[0,0.75,0],[0,0.5,0],[0,0.25,0]];" parent="1" vertex="1">
            <mxGeometry x="830" y="-280" width="160" height="110.00000000000001" as="geometry" />
          </mxCell>
        </object>
        <mxCell id="ypW-tspVXmiVovdtBrpO-23" value="update customer profile" style="edgeStyle=orthogonalEdgeStyle;curved=1;orthogonalLoop=1;jettySize=auto;html=1;exitX=0;exitY=0.5;exitDx=0;exitDy=0;exitPerimeter=0;entryX=0.5;entryY=0;entryDx=0;entryDy=0;entryPerimeter=0;dashed=1;" parent="1" source="ypW-tspVXmiVovdtBrpO-16" target="ypW-tspVXmiVovdtBrpO-14" edge="1">
          <mxGeometry x="-0.04" y="20" relative="1" as="geometry">
            <mxPoint as="offset" />
          </mxGeometry>
        </mxCell>
        <object placeholders="1" c4Name="Social Media Scanner" c4Type="Container" c4Technology="technology" c4Description="Description" label="&lt;b&gt;%c4Name%&lt;/b&gt;&lt;div&gt;[%c4Type%: %c4Technology%]&lt;/div&gt;&lt;br&gt;&lt;div&gt;%c4Description%&lt;/div&gt;" id="ypW-tspVXmiVovdtBrpO-16">
          <mxCell style="rounded=1;whiteSpace=wrap;html=1;labelBackgroundColor=none;fillColor=#438DD5;fontColor=#ffffff;align=center;arcSize=10;strokeColor=#3C7FC0;metaEdit=1;metaData={&quot;c4Type&quot;:{&quot;editable&quot;:false}};points=[[0.25,0,0],[0.5,0,0],[0.75,0,0],[1,0.25,0],[1,0.5,0],[1,0.75,0],[0.75,1,0],[0.5,1,0],[0.25,1,0],[0,0.75,0],[0,0.5,0],[0,0.25,0]];" parent="1" vertex="1">
            <mxGeometry x="1640" y="735" width="160" height="110.00000000000001" as="geometry" />
          </mxCell>
        </object>
        <object placeholders="1" c4Type="Database" c4Technology="S3" c4Description="Static Repository to store images, and other static resources like css,js etc" label="%c4Type%&lt;div&gt;[Container:&amp;nbsp;%c4Technology%]&lt;/div&gt;&lt;br&gt;&lt;div&gt;%c4Description%&lt;/div&gt;" id="ypW-tspVXmiVovdtBrpO-17">
          <mxCell style="shape=cylinder;whiteSpace=wrap;html=1;boundedLbl=1;rounded=0;labelBackgroundColor=none;fillColor=#438DD5;fontSize=12;fontColor=#ffffff;align=center;strokeColor=#3C7FC0;metaEdit=1;points=[[0.5,0,0],[1,0.25,0],[1,0.5,0],[1,0.75,0],[0.5,1,0],[0,0.75,0],[0,0.5,0],[0,0.25,0]];metaData={&quot;c4Type&quot;:{&quot;editable&quot;:false}};" parent="1" vertex="1">
            <mxGeometry x="60" y="930" width="160" height="140" as="geometry" />
          </mxCell>
        </object>
        <mxCell id="ypW-tspVXmiVovdtBrpO-37" style="edgeStyle=orthogonalEdgeStyle;curved=1;orthogonalLoop=1;jettySize=auto;html=1;exitX=0.5;exitY=1;exitDx=0;exitDy=0;exitPerimeter=0;entryX=1;entryY=0.5;entryDx=0;entryDy=0;entryPerimeter=0;dashed=1;" parent="1" source="ypW-tspVXmiVovdtBrpO-18" target="ypW-tspVXmiVovdtBrpO-13" edge="1">
          <mxGeometry relative="1" as="geometry" />
        </mxCell>
        <mxCell id="ypW-tspVXmiVovdtBrpO-95" value="Sends Product Information and Availability" style="edgeStyle=orthogonalEdgeStyle;curved=1;orthogonalLoop=1;jettySize=auto;html=1;exitX=1;exitY=0.5;exitDx=0;exitDy=0;exitPerimeter=0;dashed=1;entryX=0;entryY=0.5;entryDx=0;entryDy=0;entryPerimeter=0;" parent="1" source="ypW-tspVXmiVovdtBrpO-18" target="ypW-tspVXmiVovdtBrpO-76" edge="1">
          <mxGeometry x="-0.4963" y="15" relative="1" as="geometry">
            <mxPoint as="offset" />
          </mxGeometry>
        </mxCell>
        <object placeholders="1" c4Name="Third Party Sales Platform Adaptors" c4Type="Container" c4Technology="AWS Lamda" c4Description="Third Party Sales Platform Adaptors for Orchestration and Transformation on top of Retail API" label="&lt;b&gt;%c4Name%&lt;/b&gt;&lt;div&gt;[%c4Type%: %c4Technology%]&lt;/div&gt;&lt;br&gt;&lt;div&gt;%c4Description%&lt;/div&gt;" id="ypW-tspVXmiVovdtBrpO-18">
          <mxCell style="rounded=1;whiteSpace=wrap;html=1;labelBackgroundColor=none;fillColor=#438DD5;fontColor=#ffffff;align=center;arcSize=10;strokeColor=#3C7FC0;metaEdit=1;metaData={&quot;c4Type&quot;:{&quot;editable&quot;:false}};points=[[0.25,0,0],[0.5,0,0],[0.75,0,0],[1,0.25,0],[1,0.5,0],[1,0.75,0],[0.75,1,0],[0.5,1,0],[0.25,1,0],[0,0.75,0],[0,0.5,0],[0,0.25,0]];" parent="1" vertex="1">
            <mxGeometry x="1640" y="-40" width="160" height="110.00000000000001" as="geometry" />
          </mxCell>
        </object>
        <mxCell id="ypW-tspVXmiVovdtBrpO-53" style="edgeStyle=orthogonalEdgeStyle;curved=1;orthogonalLoop=1;jettySize=auto;html=1;exitX=0.5;exitY=1;exitDx=0;exitDy=0;exitPerimeter=0;entryX=0.5;entryY=0;entryDx=0;entryDy=0;entryPerimeter=0;dashed=1;" parent="1" source="ypW-tspVXmiVovdtBrpO-19" target="ypW-tspVXmiVovdtBrpO-14" edge="1">
          <mxGeometry relative="1" as="geometry" />
        </mxCell>
        <mxCell id="ypW-tspVXmiVovdtBrpO-105" value="Get and update &lt;br&gt;Order/Inventory Details" style="edgeLabel;html=1;align=center;verticalAlign=middle;resizable=0;points=[];" parent="ypW-tspVXmiVovdtBrpO-53" vertex="1" connectable="0">
          <mxGeometry x="-0.5352" y="-14" relative="1" as="geometry">
            <mxPoint y="-62.5" as="offset" />
          </mxGeometry>
        </mxCell>
        <mxCell id="ypW-tspVXmiVovdtBrpO-54" style="edgeStyle=orthogonalEdgeStyle;curved=1;orthogonalLoop=1;jettySize=auto;html=1;exitX=0;exitY=0.75;exitDx=0;exitDy=0;exitPerimeter=0;entryX=0.5;entryY=0;entryDx=0;entryDy=0;entryPerimeter=0;dashed=1;" parent="1" source="ypW-tspVXmiVovdtBrpO-19" target="ypW-tspVXmiVovdtBrpO-11" edge="1">
          <mxGeometry relative="1" as="geometry" />
        </mxCell>
        <mxCell id="ypW-tspVXmiVovdtBrpO-80" value="Sends Inventory,  Product Order, Invoice from Partner &amp; Supplier" style="edgeStyle=orthogonalEdgeStyle;curved=1;orthogonalLoop=1;jettySize=auto;html=1;exitX=1;exitY=0.5;exitDx=0;exitDy=0;exitPerimeter=0;entryX=0;entryY=0.5;entryDx=0;entryDy=0;entryPerimeter=0;dashed=1;" parent="1" source="ypW-tspVXmiVovdtBrpO-19" target="ypW-tspVXmiVovdtBrpO-65" edge="1">
          <mxGeometry x="0.619" y="-25" relative="1" as="geometry">
            <mxPoint as="offset" />
          </mxGeometry>
        </mxCell>
        <mxCell id="ypW-tspVXmiVovdtBrpO-82" style="edgeStyle=orthogonalEdgeStyle;curved=1;orthogonalLoop=1;jettySize=auto;html=1;exitX=1;exitY=0.5;exitDx=0;exitDy=0;exitPerimeter=0;dashed=1;" parent="1" source="ypW-tspVXmiVovdtBrpO-19" target="ypW-tspVXmiVovdtBrpO-64" edge="1">
          <mxGeometry relative="1" as="geometry" />
        </mxCell>
        <mxCell id="ypW-tspVXmiVovdtBrpO-106" style="edgeStyle=orthogonalEdgeStyle;curved=1;orthogonalLoop=1;jettySize=auto;html=1;exitX=0.25;exitY=1;exitDx=0;exitDy=0;exitPerimeter=0;entryX=1;entryY=0.75;entryDx=0;entryDy=0;entryPerimeter=0;dashed=1;" parent="1" source="ypW-tspVXmiVovdtBrpO-19" target="ypW-tspVXmiVovdtBrpO-9" edge="1">
          <mxGeometry relative="1" as="geometry" />
        </mxCell>
        <mxCell id="ypW-tspVXmiVovdtBrpO-107" value="Send Notification" style="edgeLabel;html=1;align=center;verticalAlign=middle;resizable=0;points=[];" parent="ypW-tspVXmiVovdtBrpO-106" vertex="1" connectable="0">
          <mxGeometry x="0.365" y="-16" relative="1" as="geometry">
            <mxPoint x="1" as="offset" />
          </mxGeometry>
        </mxCell>
        <object placeholders="1" c4Name="Warehouse &amp; Fulfilment Manager" c4Type="Container" c4Technology="Spring Boot" c4Description="Backoffice" label="&lt;b&gt;%c4Name%&lt;/b&gt;&lt;div&gt;[%c4Type%: %c4Technology%]&lt;/div&gt;&lt;br&gt;&lt;div&gt;%c4Description%&lt;/div&gt;" id="ypW-tspVXmiVovdtBrpO-19">
          <mxCell style="rounded=1;whiteSpace=wrap;html=1;labelBackgroundColor=none;fillColor=#438DD5;fontColor=#ffffff;align=center;arcSize=10;strokeColor=#3C7FC0;metaEdit=1;metaData={&quot;c4Type&quot;:{&quot;editable&quot;:false}};points=[[0.25,0,0],[0.5,0,0],[0.75,0,0],[1,0.25,0],[1,0.5,0],[1,0.75,0],[0.75,1,0],[0.5,1,0],[0.25,1,0],[0,0.75,0],[0,0.5,0],[0,0.25,0]];" parent="1" vertex="1">
            <mxGeometry x="1120" y="440" width="160" height="110.00000000000001" as="geometry" />
          </mxCell>
        </object>
        <mxCell id="ypW-tspVXmiVovdtBrpO-38" style="edgeStyle=orthogonalEdgeStyle;curved=1;orthogonalLoop=1;jettySize=auto;html=1;exitX=0.5;exitY=1;exitDx=0;exitDy=0;exitPerimeter=0;dashed=1;" parent="1" source="ypW-tspVXmiVovdtBrpO-20" target="ypW-tspVXmiVovdtBrpO-13" edge="1">
          <mxGeometry relative="1" as="geometry" />
        </mxCell>
        <mxCell id="ypW-tspVXmiVovdtBrpO-110" value="View Products, Promotions &amp;amp; &lt;br&gt;Recommendations, Manage Orders" style="edgeLabel;html=1;align=center;verticalAlign=middle;resizable=0;points=[];" parent="ypW-tspVXmiVovdtBrpO-38" vertex="1" connectable="0">
          <mxGeometry x="-0.6717" y="-32" relative="1" as="geometry">
            <mxPoint y="-1" as="offset" />
          </mxGeometry>
        </mxCell>
        <mxCell id="ypW-tspVXmiVovdtBrpO-46" style="edgeStyle=orthogonalEdgeStyle;curved=1;orthogonalLoop=1;jettySize=auto;html=1;exitX=0.5;exitY=1;exitDx=0;exitDy=0;exitPerimeter=0;dashed=1;" parent="1" source="ypW-tspVXmiVovdtBrpO-20" target="ypW-tspVXmiVovdtBrpO-2" edge="1">
          <mxGeometry relative="1" as="geometry">
            <mxPoint x="70" as="targetPoint" />
          </mxGeometry>
        </mxCell>
        <object placeholders="1" c4Name="Web Application (Client-side)" c4Type="Container" c4Technology="ReactJs" c4Description="Responsive Web Application used by Customer to view products/promotions, place Orders, track Orders" label="&lt;b&gt;%c4Name%&lt;/b&gt;&lt;div&gt;[%c4Type%: %c4Technology%]&lt;/div&gt;&lt;br&gt;&lt;div&gt;%c4Description%&lt;/div&gt;" id="ypW-tspVXmiVovdtBrpO-20">
          <mxCell style="rounded=1;whiteSpace=wrap;html=1;labelBackgroundColor=none;fillColor=#438DD5;fontColor=#ffffff;align=center;arcSize=10;strokeColor=#3C7FC0;metaEdit=1;metaData={&quot;c4Type&quot;:{&quot;editable&quot;:false}};points=[[0.25,0,0],[0.5,0,0],[0.75,0,0],[1,0.25,0],[1,0.5,0],[1,0.75,0],[0.75,1,0],[0.5,1,0],[0.25,1,0],[0,0.75,0],[0,0.5,0],[0,0.25,0]];" parent="1" vertex="1">
            <mxGeometry x="1070" y="-280" width="160" height="110.00000000000001" as="geometry" />
          </mxCell>
        </object>
        <object placeholders="1" c4Name="Contact Centre System" c4Type="Software System" c4Description="Description" label="&lt;b&gt;%c4Name%&lt;/b&gt;&lt;div&gt;[%c4Type%]&lt;/div&gt;&lt;br&gt;&lt;div&gt;%c4Description%&lt;/div&gt;" id="ypW-tspVXmiVovdtBrpO-61">
          <mxCell style="rounded=1;whiteSpace=wrap;html=1;labelBackgroundColor=none;fillColor=#999999;fontColor=#ffffff;align=center;arcSize=10;strokeColor=#8A8A8A;metaEdit=1;metaData={&quot;c4Type&quot;:{&quot;editable&quot;:false}};points=[[0.25,0,0],[0.5,0,0],[0.75,0,0],[1,0.25,0],[1,0.5,0],[1,0.75,0],[0.75,1,0],[0.5,1,0],[0.25,1,0],[0,0.75,0],[0,0.5,0],[0,0.25,0]];dashed=1;" parent="1" vertex="1">
            <mxGeometry x="2170" y="390" width="160" height="110.00000000000001" as="geometry" />
          </mxCell>
        </object>
        <object placeholders="1" c4Name="Catering System" c4Type="Software System" c4Description="Catering System responsible for managing and loading Inflight Products including food &amp; Duty Free" label="&lt;b&gt;%c4Name%&lt;/b&gt;&lt;div&gt;[%c4Type%]&lt;/div&gt;&lt;br&gt;&lt;div&gt;%c4Description%&lt;/div&gt;" id="ypW-tspVXmiVovdtBrpO-62">
          <mxCell style="rounded=1;whiteSpace=wrap;html=1;labelBackgroundColor=none;fillColor=#999999;fontColor=#ffffff;align=center;arcSize=10;strokeColor=#8A8A8A;metaEdit=1;metaData={&quot;c4Type&quot;:{&quot;editable&quot;:false}};points=[[0.25,0,0],[0.5,0,0],[0.75,0,0],[1,0.25,0],[1,0.5,0],[1,0.75,0],[0.75,1,0],[0.5,1,0],[0.25,1,0],[0,0.75,0],[0,0.5,0],[0,0.25,0]];dashed=1;" parent="1" vertex="1">
            <mxGeometry x="2170" y="-500" width="160" height="110.00000000000001" as="geometry" />
          </mxCell>
        </object>
        <object placeholders="1" c4Name="Crew Rostering System" c4Type="Software System" c4Description="Manages which crew is rostered on which flight" label="&lt;b&gt;%c4Name%&lt;/b&gt;&lt;div&gt;[%c4Type%]&lt;/div&gt;&lt;br&gt;&lt;div&gt;%c4Description%&lt;/div&gt;" id="ypW-tspVXmiVovdtBrpO-63">
          <mxCell style="rounded=1;whiteSpace=wrap;html=1;labelBackgroundColor=none;fillColor=#999999;fontColor=#ffffff;align=center;arcSize=10;strokeColor=#8A8A8A;metaEdit=1;metaData={&quot;c4Type&quot;:{&quot;editable&quot;:false}};points=[[0.25,0,0],[0.5,0,0],[0.75,0,0],[1,0.25,0],[1,0.5,0],[1,0.75,0],[0.75,1,0],[0.5,1,0],[0.25,1,0],[0,0.75,0],[0,0.5,0],[0,0.25,0]];dashed=1;" parent="1" vertex="1">
            <mxGeometry x="-820" y="210" width="160" height="110.00000000000001" as="geometry" />
          </mxCell>
        </object>
        <object placeholders="1" c4Name="Delivery Partner System" c4Type="Software System" c4Description="Courier System" label="&lt;b&gt;%c4Name%&lt;/b&gt;&lt;div&gt;[%c4Type%]&lt;/div&gt;&lt;br&gt;&lt;div&gt;%c4Description%&lt;/div&gt;" id="ypW-tspVXmiVovdtBrpO-64">
          <mxCell style="rounded=1;whiteSpace=wrap;html=1;labelBackgroundColor=none;fillColor=#999999;fontColor=#ffffff;align=center;arcSize=10;strokeColor=#8A8A8A;metaEdit=1;metaData={&quot;c4Type&quot;:{&quot;editable&quot;:false}};points=[[0.25,0,0],[0.5,0,0],[0.75,0,0],[1,0.25,0],[1,0.5,0],[1,0.75,0],[0.75,1,0],[0.5,1,0],[0.25,1,0],[0,0.75,0],[0,0.5,0],[0,0.25,0]];dashed=1;" parent="1" vertex="1">
            <mxGeometry x="2170" y="790" width="160" height="110.00000000000001" as="geometry" />
          </mxCell>
        </object>
        <object placeholders="1" c4Name="Finance System" c4Type="Software System" c4Description="Financial Accounting &amp; Reconciliation system" label="&lt;b&gt;%c4Name%&lt;/b&gt;&lt;div&gt;[%c4Type%]&lt;/div&gt;&lt;br&gt;&lt;div&gt;%c4Description%&lt;/div&gt;" id="ypW-tspVXmiVovdtBrpO-65">
          <mxCell style="rounded=1;whiteSpace=wrap;html=1;labelBackgroundColor=none;fillColor=#999999;fontColor=#ffffff;align=center;arcSize=10;strokeColor=#8A8A8A;metaEdit=1;metaData={&quot;c4Type&quot;:{&quot;editable&quot;:false}};points=[[0.25,0,0],[0.5,0,0],[0.75,0,0],[1,0.25,0],[1,0.5,0],[1,0.75,0],[0.75,1,0],[0.5,1,0],[0.25,1,0],[0,0.75,0],[0,0.5,0],[0,0.25,0]];dashed=1;" parent="1" vertex="1">
            <mxGeometry x="2170" y="70" width="160" height="110.00000000000001" as="geometry" />
          </mxCell>
        </object>
        <object placeholders="1" c4Name="Flight Scheduling System" c4Type="Software System" c4Description="Day of operation Flight Scheduling System" label="&lt;b&gt;%c4Name%&lt;/b&gt;&lt;div&gt;[%c4Type%]&lt;/div&gt;&lt;br&gt;&lt;div&gt;%c4Description%&lt;/div&gt;" id="ypW-tspVXmiVovdtBrpO-66">
          <mxCell style="rounded=1;whiteSpace=wrap;html=1;labelBackgroundColor=none;fillColor=#999999;fontColor=#ffffff;align=center;arcSize=10;strokeColor=#8A8A8A;metaEdit=1;metaData={&quot;c4Type&quot;:{&quot;editable&quot;:false}};points=[[0.25,0,0],[0.5,0,0],[0.75,0,0],[1,0.25,0],[1,0.5,0],[1,0.75,0],[0.75,1,0],[0.5,1,0],[0.25,1,0],[0,0.75,0],[0,0.5,0],[0,0.25,0]];dashed=1;" parent="1" vertex="1">
            <mxGeometry x="-820" y="400" width="160" height="110.00000000000001" as="geometry" />
          </mxCell>
        </object>
        <object placeholders="1" c4Name="HR System" c4Type="Software System" c4Description="Used to Manage Employee Information including DDS limits" label="&lt;b&gt;%c4Name%&lt;/b&gt;&lt;div&gt;[%c4Type%]&lt;/div&gt;&lt;br&gt;&lt;div&gt;%c4Description%&lt;/div&gt;" id="ypW-tspVXmiVovdtBrpO-67">
          <mxCell style="rounded=1;whiteSpace=wrap;html=1;labelBackgroundColor=none;fillColor=#999999;fontColor=#ffffff;align=center;arcSize=10;strokeColor=#8A8A8A;metaEdit=1;metaData={&quot;c4Type&quot;:{&quot;editable&quot;:false}};points=[[0.25,0,0],[0.5,0,0],[0.75,0,0],[1,0.25,0],[1,0.5,0],[1,0.75,0],[0.75,1,0],[0.5,1,0],[0.25,1,0],[0,0.75,0],[0,0.5,0],[0,0.25,0]];dashed=1;" parent="1" vertex="1">
            <mxGeometry x="-820" y="580" width="160" height="110" as="geometry" />
          </mxCell>
        </object>
        <object placeholders="1" c4Name="Identity Platform" c4Type="Software System" c4Description="Enterprise Identity Platform for both Staff &amp; Customers" label="&lt;b&gt;%c4Name%&lt;/b&gt;&lt;div&gt;[%c4Type%]&lt;/div&gt;&lt;br&gt;&lt;div&gt;%c4Description%&lt;/div&gt;" id="ypW-tspVXmiVovdtBrpO-68">
          <mxCell style="rounded=1;whiteSpace=wrap;html=1;labelBackgroundColor=none;fillColor=#999999;fontColor=#ffffff;align=center;arcSize=10;strokeColor=#8A8A8A;metaEdit=1;metaData={&quot;c4Type&quot;:{&quot;editable&quot;:false}};points=[[0.25,0,0],[0.5,0,0],[0.75,0,0],[1,0.25,0],[1,0.5,0],[1,0.75,0],[0.75,1,0],[0.5,1,0],[0.25,1,0],[0,0.75,0],[0,0.5,0],[0,0.25,0]];dashed=1;" parent="1" vertex="1">
            <mxGeometry x="-820" y="-340" width="160" height="110.00000000000001" as="geometry" />
          </mxCell>
        </object>
        <mxCell id="ypW-tspVXmiVovdtBrpO-79" style="edgeStyle=orthogonalEdgeStyle;curved=1;orthogonalLoop=1;jettySize=auto;html=1;exitX=0.5;exitY=1;exitDx=0;exitDy=0;exitPerimeter=0;entryX=0.5;entryY=0;entryDx=0;entryDy=0;entryPerimeter=0;dashed=1;" parent="1" source="ypW-tspVXmiVovdtBrpO-69" target="ypW-tspVXmiVovdtBrpO-7" edge="1">
          <mxGeometry relative="1" as="geometry" />
        </mxCell>
        <object placeholders="1" c4Name="IFE Systems" c4Type="Software System" c4Description="IFE Systems with ability to host Apps" label="&lt;b&gt;%c4Name%&lt;/b&gt;&lt;div&gt;[%c4Type%]&lt;/div&gt;&lt;br&gt;&lt;div&gt;%c4Description%&lt;/div&gt;" id="ypW-tspVXmiVovdtBrpO-69">
          <mxCell style="rounded=1;whiteSpace=wrap;html=1;labelBackgroundColor=none;fillColor=#999999;fontColor=#ffffff;align=center;arcSize=10;strokeColor=#8A8A8A;metaEdit=1;metaData={&quot;c4Type&quot;:{&quot;editable&quot;:false}};points=[[0.25,0,0],[0.5,0,0],[0.75,0,0],[1,0.25,0],[1,0.5,0],[1,0.75,0],[0.75,1,0],[0.5,1,0],[0.25,1,0],[0,0.75,0],[0,0.5,0],[0,0.25,0]];dashed=1;" parent="1" vertex="1">
            <mxGeometry x="180" y="-530" width="160" height="110.00000000000001" as="geometry" />
          </mxCell>
        </object>
        <mxCell id="ypW-tspVXmiVovdtBrpO-78" style="edgeStyle=orthogonalEdgeStyle;curved=1;orthogonalLoop=1;jettySize=auto;html=1;exitX=0.5;exitY=1;exitDx=0;exitDy=0;exitPerimeter=0;entryX=0.5;entryY=0;entryDx=0;entryDy=0;entryPerimeter=0;dashed=1;" parent="1" source="ypW-tspVXmiVovdtBrpO-70" target="ypW-tspVXmiVovdtBrpO-20" edge="1">
          <mxGeometry relative="1" as="geometry" />
        </mxCell>
        <object placeholders="1" c4Name="Kiosk" c4Type="Software System" c4Description="Generic Kiosk that can launch any whitelisted website" label="&lt;b&gt;%c4Name%&lt;/b&gt;&lt;div&gt;[%c4Type%]&lt;/div&gt;&lt;br&gt;&lt;div&gt;%c4Description%&lt;/div&gt;" id="ypW-tspVXmiVovdtBrpO-70">
          <mxCell style="rounded=1;whiteSpace=wrap;html=1;labelBackgroundColor=none;fillColor=#999999;fontColor=#ffffff;align=center;arcSize=10;strokeColor=#8A8A8A;metaEdit=1;metaData={&quot;c4Type&quot;:{&quot;editable&quot;:false}};points=[[0.25,0,0],[0.5,0,0],[0.75,0,0],[1,0.25,0],[1,0.5,0],[1,0.75,0],[0.75,1,0],[0.5,1,0],[0.25,1,0],[0,0.75,0],[0,0.5,0],[0,0.25,0]];dashed=1;" parent="1" vertex="1">
            <mxGeometry x="1300" y="-520" width="160" height="110.00000000000001" as="geometry" />
          </mxCell>
        </object>
        <object placeholders="1" c4Name="Loyalty System" c4Type="Software System" c4Description="Manages Loyalty Members and their Loyalty Points" label="&lt;b&gt;%c4Name%&lt;/b&gt;&lt;div&gt;[%c4Type%]&lt;/div&gt;&lt;br&gt;&lt;div&gt;%c4Description%&lt;/div&gt;" id="ypW-tspVXmiVovdtBrpO-71">
          <mxCell style="rounded=1;whiteSpace=wrap;html=1;labelBackgroundColor=none;fillColor=#999999;fontColor=#ffffff;align=center;arcSize=10;strokeColor=#8A8A8A;metaEdit=1;metaData={&quot;c4Type&quot;:{&quot;editable&quot;:false}};points=[[0.25,0,0],[0.5,0,0],[0.75,0,0],[1,0.25,0],[1,0.5,0],[1,0.75,0],[0.75,1,0],[0.5,1,0],[0.25,1,0],[0,0.75,0],[0,0.5,0],[0,0.25,0]];dashed=1;" parent="1" vertex="1">
            <mxGeometry x="2170" y="240" width="160" height="110.00000000000001" as="geometry" />
          </mxCell>
        </object>
        <object placeholders="1" c4Name="Messaging Gateway" c4Type="Software System" c4Description="Enterprise Messaging gateway to send Email &amp; SMS" label="&lt;b&gt;%c4Name%&lt;/b&gt;&lt;div&gt;[%c4Type%]&lt;/div&gt;&lt;br&gt;&lt;div&gt;%c4Description%&lt;/div&gt;" id="ypW-tspVXmiVovdtBrpO-72">
          <mxCell style="rounded=1;whiteSpace=wrap;html=1;labelBackgroundColor=none;fillColor=#999999;fontColor=#ffffff;align=center;arcSize=10;strokeColor=#8A8A8A;metaEdit=1;metaData={&quot;c4Type&quot;:{&quot;editable&quot;:false}};points=[[0.25,0,0],[0.5,0,0],[0.75,0,0],[1,0.25,0],[1,0.5,0],[1,0.75,0],[0.75,1,0],[0.5,1,0],[0.25,1,0],[0,0.75,0],[0,0.5,0],[0,0.25,0]];dashed=1;" parent="1" vertex="1">
            <mxGeometry x="-330" y="1230" width="160" height="110.00000000000001" as="geometry" />
          </mxCell>
        </object>
        <mxCell id="ypW-tspVXmiVovdtBrpO-86" style="edgeStyle=orthogonalEdgeStyle;curved=1;orthogonalLoop=1;jettySize=auto;html=1;exitX=1;exitY=0.5;exitDx=0;exitDy=0;exitPerimeter=0;entryX=0;entryY=0.5;entryDx=0;entryDy=0;entryPerimeter=0;dashed=1;" parent="1" source="ypW-tspVXmiVovdtBrpO-73" target="ypW-tspVXmiVovdtBrpO-13" edge="1">
          <mxGeometry relative="1" as="geometry">
            <Array as="points">
              <mxPoint x="-120" y="-115" />
              <mxPoint x="-120" y="235" />
            </Array>
          </mxGeometry>
        </mxCell>
        <mxCell id="ypW-tspVXmiVovdtBrpO-116" value="Manage Products, Promotions, Inventory for Partners" style="edgeLabel;html=1;align=center;verticalAlign=middle;resizable=0;points=[];" parent="ypW-tspVXmiVovdtBrpO-86" vertex="1" connectable="0">
          <mxGeometry x="-0.741" y="-8" relative="1" as="geometry">
            <mxPoint x="-1" as="offset" />
          </mxGeometry>
        </mxCell>
        <object placeholders="1" c4Name="Partner Systems" c4Type="Software System" c4Description="DA, Duty Free , Dubai tourism, Dnata, Other Partner Systems" label="&lt;b&gt;%c4Name%&lt;/b&gt;&lt;div&gt;[%c4Type%]&lt;/div&gt;&lt;br&gt;&lt;div&gt;%c4Description%&lt;/div&gt;" id="ypW-tspVXmiVovdtBrpO-73">
          <mxCell style="rounded=1;whiteSpace=wrap;html=1;labelBackgroundColor=none;fillColor=#999999;fontColor=#ffffff;align=center;arcSize=10;strokeColor=#8A8A8A;metaEdit=1;metaData={&quot;c4Type&quot;:{&quot;editable&quot;:false}};points=[[0.25,0,0],[0.5,0,0],[0.75,0,0],[1,0.25,0],[1,0.5,0],[1,0.75,0],[0.75,1,0],[0.5,1,0],[0.25,1,0],[0,0.75,0],[0,0.5,0],[0,0.25,0]];dashed=1;" parent="1" vertex="1">
            <mxGeometry x="-820" y="-170" width="160" height="110.00000000000001" as="geometry" />
          </mxCell>
        </object>
        <object placeholders="1" c4Name="PAX Reservation System" c4Type="Software System" c4Description="Passenger Reservation System" label="&lt;b&gt;%c4Name%&lt;/b&gt;&lt;div&gt;[%c4Type%]&lt;/div&gt;&lt;br&gt;&lt;div&gt;%c4Description%&lt;/div&gt;" id="ypW-tspVXmiVovdtBrpO-74">
          <mxCell style="rounded=1;whiteSpace=wrap;html=1;labelBackgroundColor=none;fillColor=#999999;fontColor=#ffffff;align=center;arcSize=10;strokeColor=#8A8A8A;metaEdit=1;metaData={&quot;c4Type&quot;:{&quot;editable&quot;:false}};points=[[0.25,0,0],[0.5,0,0],[0.75,0,0],[1,0.25,0],[1,0.5,0],[1,0.75,0],[0.75,1,0],[0.5,1,0],[0.25,1,0],[0,0.75,0],[0,0.5,0],[0,0.25,0]];dashed=1;" parent="1" vertex="1">
            <mxGeometry x="-820" y="40" width="160" height="110.00000000000001" as="geometry" />
          </mxCell>
        </object>
        <mxCell id="ypW-tspVXmiVovdtBrpO-83" style="edgeStyle=orthogonalEdgeStyle;curved=1;orthogonalLoop=1;jettySize=auto;html=1;exitX=0;exitY=0.5;exitDx=0;exitDy=0;exitPerimeter=0;entryX=1;entryY=0.5;entryDx=0;entryDy=0;entryPerimeter=0;dashed=1;" parent="1" source="ypW-tspVXmiVovdtBrpO-75" target="ypW-tspVXmiVovdtBrpO-16" edge="1">
          <mxGeometry relative="1" as="geometry" />
        </mxCell>
        <mxCell id="ypW-tspVXmiVovdtBrpO-115" value="Get Customer information from &lt;br&gt;Social Media information" style="edgeLabel;html=1;align=center;verticalAlign=middle;resizable=0;points=[];" parent="ypW-tspVXmiVovdtBrpO-83" vertex="1" connectable="0">
          <mxGeometry x="0.4771" y="-22" relative="1" as="geometry">
            <mxPoint as="offset" />
          </mxGeometry>
        </mxCell>
        <object placeholders="1" c4Name="Social Media Platforms" c4Type="Software System" c4Description="Social Media Platforms like Facebook, Twitter" label="&lt;b&gt;%c4Name%&lt;/b&gt;&lt;div&gt;[%c4Type%]&lt;/div&gt;&lt;br&gt;&lt;div&gt;%c4Description%&lt;/div&gt;" id="ypW-tspVXmiVovdtBrpO-75">
          <mxCell style="rounded=1;whiteSpace=wrap;html=1;labelBackgroundColor=none;fillColor=#999999;fontColor=#ffffff;align=center;arcSize=10;strokeColor=#8A8A8A;metaEdit=1;metaData={&quot;c4Type&quot;:{&quot;editable&quot;:false}};points=[[0.25,0,0],[0.5,0,0],[0.75,0,0],[1,0.25,0],[1,0.5,0],[1,0.75,0],[0.75,1,0],[0.5,1,0],[0.25,1,0],[0,0.75,0],[0,0.5,0],[0,0.25,0]];dashed=1;" parent="1" vertex="1">
            <mxGeometry x="2170" y="560" width="160" height="110.00000000000001" as="geometry" />
          </mxCell>
        </object>
        <object placeholders="1" c4Name="ThirdParty Selling Platform" c4Type="Software System" c4Description="ThirdParty Selling Platform like Amazon" label="&lt;b&gt;%c4Name%&lt;/b&gt;&lt;div&gt;[%c4Type%]&lt;/div&gt;&lt;br&gt;&lt;div&gt;%c4Description%&lt;/div&gt;" id="ypW-tspVXmiVovdtBrpO-76">
          <mxCell style="rounded=1;whiteSpace=wrap;html=1;labelBackgroundColor=none;fillColor=#999999;fontColor=#ffffff;align=center;arcSize=10;strokeColor=#8A8A8A;metaEdit=1;metaData={&quot;c4Type&quot;:{&quot;editable&quot;:false}};points=[[0.25,0,0],[0.5,0,0],[0.75,0,0],[1,0.25,0],[1,0.5,0],[1,0.75,0],[0.75,1,0],[0.5,1,0],[0.25,1,0],[0,0.75,0],[0,0.5,0],[0,0.25,0]];dashed=1;" parent="1" vertex="1">
            <mxGeometry x="2170" y="-300" width="160" height="110.00000000000001" as="geometry" />
          </mxCell>
        </object>
        <object placeholders="1" c4Name="Payment Gateway" c4Type="Software System" c4Description="Payment Processing" label="&lt;b&gt;%c4Name%&lt;/b&gt;&lt;div&gt;[%c4Type%]&lt;/div&gt;&lt;br&gt;&lt;div&gt;%c4Description%&lt;/div&gt;" id="ypW-tspVXmiVovdtBrpO-97">
          <mxCell style="rounded=1;whiteSpace=wrap;html=1;labelBackgroundColor=none;fillColor=#999999;fontColor=#ffffff;align=center;arcSize=10;strokeColor=#8A8A8A;metaEdit=1;metaData={&quot;c4Type&quot;:{&quot;editable&quot;:false}};points=[[0.25,0,0],[0.5,0,0],[0.75,0,0],[1,0.25,0],[1,0.5,0],[1,0.75,0],[0.75,1,0],[0.5,1,0],[0.25,1,0],[0,0.75,0],[0,0.5,0],[0,0.25,0]];dashed=1;" parent="1" vertex="1">
            <mxGeometry x="2170" y="-120" width="160" height="110.00000000000001" as="geometry" />
          </mxCell>
        </object>
        <object placeholders="1" c4Name="Loyalty Points Sharing" c4Type="Container" c4Technology="Blockchain" c4Description="Description" label="&lt;b&gt;%c4Name%&lt;/b&gt;&lt;div&gt;[%c4Type%: %c4Technology%]&lt;/div&gt;&lt;br&gt;&lt;div&gt;%c4Description%&lt;/div&gt;" id="56By8Mg8wd94iI8tyMdt-1">
          <mxCell style="rounded=1;whiteSpace=wrap;html=1;labelBackgroundColor=none;fontColor=#ffffff;align=center;arcSize=10;strokeColor=#3C7FC0;metaEdit=1;metaData={&quot;c4Type&quot;:{&quot;editable&quot;:false}};points=[[0.25,0,0],[0.5,0,0],[0.75,0,0],[1,0.25,0],[1,0.5,0],[1,0.75,0],[0.75,1,0],[0.5,1,0],[0.25,1,0],[0,0.75,0],[0,0.5,0],[0,0.25,0]];fillColor=#EA6B66;" vertex="1" parent="1">
            <mxGeometry x="-10" y="-190" width="160" height="110.00000000000001" as="geometry" />
          </mxCell>
        </object>
        <mxCell id="56By8Mg8wd94iI8tyMdt-3" style="edgeStyle=orthogonalEdgeStyle;curved=1;orthogonalLoop=1;jettySize=auto;html=1;exitX=1;exitY=0.5;exitDx=0;exitDy=0;exitPerimeter=0;entryX=0;entryY=0.75;entryDx=0;entryDy=0;entryPerimeter=0;dashed=1;" edge="1" parent="1" source="ypW-tspVXmiVovdtBrpO-73" target="56By8Mg8wd94iI8tyMdt-1">
          <mxGeometry relative="1" as="geometry">
            <mxPoint x="-650" y="-105" as="sourcePoint" />
            <mxPoint x="557.5" y="245" as="targetPoint" />
          </mxGeometry>
        </mxCell>
        <mxCell id="56By8Mg8wd94iI8tyMdt-5" value="Text" style="edgeLabel;html=1;align=center;verticalAlign=middle;resizable=0;points=[];" vertex="1" connectable="0" parent="56By8Mg8wd94iI8tyMdt-3">
          <mxGeometry x="-0.3543" y="-8" relative="1" as="geometry">
            <mxPoint as="offset" />
          </mxGeometry>
        </mxCell>
      </root>
    </mxGraphModel>
  </diagram>
  <diagram id="gLTnFSGZQpKApbEZ2_KJ" name="Page-2">
    <mxGraphModel dx="782" dy="1512" grid="1" gridSize="10" guides="1" tooltips="1" connect="1" arrows="1" fold="1" page="1" pageScale="1" pageWidth="850" pageHeight="1100" math="0" shadow="0">
      <root>
        <mxCell id="hHb4B-v7SG78cvWRyUYi-0" />
        <mxCell id="hHb4B-v7SG78cvWRyUYi-1" parent="hHb4B-v7SG78cvWRyUYi-0" />
        <mxCell id="U4wcCVGJ9RebIwBSQEMv-12" value="" style="rounded=0;whiteSpace=wrap;html=1;dashed=1;fillColor=#FFFFFF;" parent="hHb4B-v7SG78cvWRyUYi-1" vertex="1">
          <mxGeometry x="10" y="-170" width="1280" height="800" as="geometry" />
        </mxCell>
        <object placeholders="1" c4Name="Authenticator (Offline)" c4Type="Component" c4Technology="technology" c4Description="Description" label="&lt;b&gt;%c4Name%&lt;/b&gt;&lt;div&gt;[%c4Type%: %c4Technology%]&lt;/div&gt;&lt;br&gt;&lt;div&gt;%c4Description%&lt;/div&gt;" id="qQK2ZnO8fDEm6S95lJIe-0">
          <mxCell style="rounded=1;whiteSpace=wrap;html=1;labelBackgroundColor=none;fillColor=#85BBF0;fontColor=#ffffff;align=center;arcSize=10;strokeColor=#78A8D8;metaEdit=1;metaData={&quot;c4Type&quot;:{&quot;editable&quot;:false}};points=[[0.25,0,0],[0.5,0,0],[0.75,0,0],[1,0.25,0],[1,0.5,0],[1,0.75,0],[0.75,1,0],[0.5,1,0],[0.25,1,0],[0,0.75,0],[0,0.5,0],[0,0.25,0]];dashed=1;" parent="hHb4B-v7SG78cvWRyUYi-1" vertex="1">
            <mxGeometry x="960" y="60" width="160" height="110.00000000000001" as="geometry" />
          </mxCell>
        </object>
        <object placeholders="1" c4Name="Connectivity Manager" c4Type="Component" c4Technology="technology" c4Description="Description" label="&lt;b&gt;%c4Name%&lt;/b&gt;&lt;div&gt;[%c4Type%: %c4Technology%]&lt;/div&gt;&lt;br&gt;&lt;div&gt;%c4Description%&lt;/div&gt;" id="qQK2ZnO8fDEm6S95lJIe-2">
          <mxCell style="rounded=1;whiteSpace=wrap;html=1;labelBackgroundColor=none;fillColor=#85BBF0;fontColor=#ffffff;align=center;arcSize=10;strokeColor=#78A8D8;metaEdit=1;metaData={&quot;c4Type&quot;:{&quot;editable&quot;:false}};points=[[0.25,0,0],[0.5,0,0],[0.75,0,0],[1,0.25,0],[1,0.5,0],[1,0.75,0],[0.75,1,0],[0.5,1,0],[0.25,1,0],[0,0.75,0],[0,0.5,0],[0,0.25,0]];dashed=1;" parent="hHb4B-v7SG78cvWRyUYi-1" vertex="1">
            <mxGeometry x="960" y="250" width="160" height="110.00000000000001" as="geometry" />
          </mxCell>
        </object>
        <object placeholders="1" c4Name="Data Sync" c4Type="Component" c4Technology="technology" c4Description="Description" label="&lt;b&gt;%c4Name%&lt;/b&gt;&lt;div&gt;[%c4Type%: %c4Technology%]&lt;/div&gt;&lt;br&gt;&lt;div&gt;%c4Description%&lt;/div&gt;" id="qQK2ZnO8fDEm6S95lJIe-3">
          <mxCell style="rounded=1;whiteSpace=wrap;html=1;labelBackgroundColor=none;fillColor=#85BBF0;fontColor=#ffffff;align=center;arcSize=10;strokeColor=#78A8D8;metaEdit=1;metaData={&quot;c4Type&quot;:{&quot;editable&quot;:false}};points=[[0.25,0,0],[0.5,0,0],[0.75,0,0],[1,0.25,0],[1,0.5,0],[1,0.75,0],[0.75,1,0],[0.5,1,0],[0.25,1,0],[0,0.75,0],[0,0.5,0],[0,0.25,0]];dashed=1;" parent="hHb4B-v7SG78cvWRyUYi-1" vertex="1">
            <mxGeometry x="55" y="-10" width="160" height="110.00000000000001" as="geometry" />
          </mxCell>
        </object>
        <object placeholders="1" c4Name="Offline DB" c4Type="Component" c4Technology="technology" c4Description="Description" label="&lt;b&gt;%c4Name%&lt;/b&gt;&lt;div&gt;[%c4Type%: %c4Technology%]&lt;/div&gt;&lt;br&gt;&lt;div&gt;%c4Description%&lt;/div&gt;" id="qQK2ZnO8fDEm6S95lJIe-4">
          <mxCell style="rounded=1;whiteSpace=wrap;html=1;labelBackgroundColor=none;fillColor=#85BBF0;fontColor=#ffffff;align=center;arcSize=10;strokeColor=#78A8D8;metaEdit=1;metaData={&quot;c4Type&quot;:{&quot;editable&quot;:false}};points=[[0.25,0,0],[0.5,0,0],[0.75,0,0],[1,0.25,0],[1,0.5,0],[1,0.75,0],[0.75,1,0],[0.5,1,0],[0.25,1,0],[0,0.75,0],[0,0.5,0],[0,0.25,0]];dashed=1;" parent="hHb4B-v7SG78cvWRyUYi-1" vertex="1">
            <mxGeometry x="470" y="280" width="160" height="110.00000000000001" as="geometry" />
          </mxCell>
        </object>
        <object placeholders="1" c4Name="Retail Service/UI Shell" c4Type="Component" c4Technology="React Native" c4Description="Description" label="&lt;b&gt;%c4Name%&lt;/b&gt;&lt;div&gt;[%c4Type%: %c4Technology%]&lt;/div&gt;&lt;br&gt;&lt;div&gt;%c4Description%&lt;/div&gt;" id="qQK2ZnO8fDEm6S95lJIe-5">
          <mxCell style="rounded=1;whiteSpace=wrap;html=1;labelBackgroundColor=none;fillColor=#85BBF0;fontColor=#ffffff;align=center;arcSize=10;strokeColor=#78A8D8;metaEdit=1;metaData={&quot;c4Type&quot;:{&quot;editable&quot;:false}};points=[[0.25,0,0],[0.5,0,0],[0.75,0,0],[1,0.25,0],[1,0.5,0],[1,0.75,0],[0.75,1,0],[0.5,1,0],[0.25,1,0],[0,0.75,0],[0,0.5,0],[0,0.25,0]];dashed=1;" parent="hHb4B-v7SG78cvWRyUYi-1" vertex="1">
            <mxGeometry x="320" y="-10" width="380" height="110" as="geometry" />
          </mxCell>
        </object>
        <object placeholders="1" c4Type="Relationship" c4Technology="Native" c4Description="Authenticate" label="&lt;div style=&quot;text-align: left&quot;&gt;&lt;div style=&quot;text-align: center&quot;&gt;&lt;b&gt;%c4Description%&lt;/b&gt;&lt;/div&gt;&lt;div style=&quot;text-align: center&quot;&gt;[%c4Technology%]&lt;/div&gt;&lt;/div&gt;" id="z5oMl6E4IDuqPRln-sLO-0">
          <mxCell style="edgeStyle=none;html=1;jettySize=auto;orthogonalLoop=1;strokeColor=#707070;strokeWidth=2;fontColor=#707070;jumpStyle=none;dashed=1;metaEdit=1;metaData={&quot;c4Type&quot;:{&quot;editable&quot;:false}};exitX=1;exitY=0.5;exitDx=0;exitDy=0;exitPerimeter=0;curved=1;" parent="hHb4B-v7SG78cvWRyUYi-1" source="qQK2ZnO8fDEm6S95lJIe-5" target="qQK2ZnO8fDEm6S95lJIe-0" edge="1">
            <mxGeometry width="160" relative="1" as="geometry">
              <mxPoint x="390" y="200" as="sourcePoint" />
              <mxPoint x="550" y="200" as="targetPoint" />
              <Array as="points">
                <mxPoint x="770" y="140" />
              </Array>
            </mxGeometry>
          </mxCell>
        </object>
        <object placeholders="1" c4Type="Relationship" c4Technology="Native" c4Description="Initiate/Check Data Sync" label="&lt;div style=&quot;text-align: left&quot;&gt;&lt;div style=&quot;text-align: center&quot;&gt;&lt;b&gt;%c4Description%&lt;/b&gt;&lt;/div&gt;&lt;div style=&quot;text-align: center&quot;&gt;[%c4Technology%]&lt;/div&gt;&lt;/div&gt;" id="z5oMl6E4IDuqPRln-sLO-5">
          <mxCell style="edgeStyle=none;html=1;entryX=1;entryY=0.5;jettySize=auto;orthogonalLoop=1;strokeColor=#707070;strokeWidth=2;fontColor=#707070;jumpStyle=none;dashed=1;metaEdit=1;metaData={&quot;c4Type&quot;:{&quot;editable&quot;:false}};exitX=0.5;exitY=1;exitDx=0;exitDy=0;exitPerimeter=0;entryDx=0;entryDy=0;entryPerimeter=0;curved=1;" parent="hHb4B-v7SG78cvWRyUYi-1" source="qQK2ZnO8fDEm6S95lJIe-5" target="qQK2ZnO8fDEm6S95lJIe-3" edge="1">
            <mxGeometry width="160" relative="1" as="geometry">
              <mxPoint x="290" y="110" as="sourcePoint" />
              <mxPoint x="450" y="110" as="targetPoint" />
              <Array as="points">
                <mxPoint x="300" y="200" />
              </Array>
            </mxGeometry>
          </mxCell>
        </object>
        <object placeholders="1" c4Name="Retail API Service" c4Type="Container" c4Technology="SpringBoot / Quarkus****" c4Description="Retail API Service built using Microservice &amp; Exposed via API Gateway" label="&lt;b&gt;%c4Name%&lt;/b&gt;&lt;div&gt;[%c4Type%: %c4Technology%]&lt;/div&gt;&lt;br&gt;&lt;div&gt;%c4Description%&lt;/div&gt;" id="4pJlVW98KbuW1XqA6yW8-0">
          <mxCell style="rounded=1;whiteSpace=wrap;html=1;labelBackgroundColor=none;fillColor=#438DD5;fontColor=#ffffff;align=center;arcSize=10;strokeColor=#3C7FC0;metaEdit=1;metaData={&quot;c4Type&quot;:{&quot;editable&quot;:false}};points=[[0.25,0,0],[0.5,0,0],[0.75,0,0],[1,0.25,0],[1,0.5,0],[1,0.75,0],[0.75,1,0],[0.5,1,0],[0.25,1,0],[0,0.75,0],[0,0.5,0],[0,0.25,0]];" parent="hHb4B-v7SG78cvWRyUYi-1" vertex="1">
            <mxGeometry x="215" y="-330" width="510" height="110" as="geometry" />
          </mxCell>
        </object>
        <object placeholders="1" c4Type="Relationship" c4Technology="technology" c4Description="Download Products, Promotions &amp; &#xa;Recommendations" label="&lt;div style=&quot;text-align: left&quot;&gt;&lt;div style=&quot;text-align: center&quot;&gt;&lt;b&gt;%c4Description%&lt;/b&gt;&lt;/div&gt;&lt;div style=&quot;text-align: center&quot;&gt;[%c4Technology%]&lt;/div&gt;&lt;/div&gt;" id="4pJlVW98KbuW1XqA6yW8-3">
          <mxCell style="edgeStyle=none;rounded=0;html=1;entryX=0.25;entryY=1;jettySize=auto;orthogonalLoop=1;strokeColor=#707070;strokeWidth=2;fontColor=#707070;jumpStyle=none;dashed=1;metaEdit=1;metaData={&quot;c4Type&quot;:{&quot;editable&quot;:false}};exitX=0.5;exitY=0;exitDx=0;exitDy=0;exitPerimeter=0;entryDx=0;entryDy=0;entryPerimeter=0;" parent="hHb4B-v7SG78cvWRyUYi-1" source="qQK2ZnO8fDEm6S95lJIe-3" target="4pJlVW98KbuW1XqA6yW8-0" edge="1">
            <mxGeometry width="160" relative="1" as="geometry">
              <mxPoint x="210" y="-20" as="sourcePoint" />
              <mxPoint x="370" y="-20" as="targetPoint" />
            </mxGeometry>
          </mxCell>
        </object>
        <object placeholders="1" c4Type="Relationship" c4Technology="Https" c4Description="Manage Orders, Inventory" label="&lt;div style=&quot;text-align: left&quot;&gt;&lt;div style=&quot;text-align: center&quot;&gt;&lt;b&gt;%c4Description%&lt;/b&gt;&lt;/div&gt;&lt;div style=&quot;text-align: center&quot;&gt;[%c4Technology%]&lt;/div&gt;&lt;/div&gt;" id="4pJlVW98KbuW1XqA6yW8-4">
          <mxCell style="edgeStyle=none;rounded=0;html=1;entryX=0.5;entryY=1;jettySize=auto;orthogonalLoop=1;strokeColor=#707070;strokeWidth=2;fontColor=#707070;jumpStyle=none;dashed=1;metaEdit=1;metaData={&quot;c4Type&quot;:{&quot;editable&quot;:false}};entryDx=0;entryDy=0;entryPerimeter=0;exitX=0.5;exitY=0;exitDx=0;exitDy=0;exitPerimeter=0;" parent="hHb4B-v7SG78cvWRyUYi-1" source="qQK2ZnO8fDEm6S95lJIe-5" target="4pJlVW98KbuW1XqA6yW8-0" edge="1">
            <mxGeometry width="160" relative="1" as="geometry">
              <mxPoint x="210" y="-20" as="sourcePoint" />
              <mxPoint x="370" y="-20" as="targetPoint" />
            </mxGeometry>
          </mxCell>
        </object>
        <object placeholders="1" c4Name="Identity &amp; Security Service" c4Type="Container" c4Technology="AzureAD B2B &amp; B2C / Okta**" c4Description="Handles Authentication and Handles Authentication and Authorisation" label="&lt;b&gt;%c4Name%&lt;/b&gt;&lt;div&gt;[%c4Type%: %c4Technology%]&lt;/div&gt;&lt;br&gt;&lt;div&gt;%c4Description%&lt;/div&gt;" id="U4wcCVGJ9RebIwBSQEMv-0">
          <mxCell style="rounded=1;whiteSpace=wrap;html=1;labelBackgroundColor=none;fillColor=#438DD5;fontColor=#ffffff;align=center;arcSize=10;strokeColor=#3C7FC0;metaEdit=1;metaData={&quot;c4Type&quot;:{&quot;editable&quot;:false}};points=[[0.25,0,0],[0.5,0,0],[0.75,0,0],[1,0.25,0],[1,0.5,0],[1,0.75,0],[0.75,1,0],[0.5,1,0],[0.25,1,0],[0,0.75,0],[0,0.5,0],[0,0.25,0]];" parent="hHb4B-v7SG78cvWRyUYi-1" vertex="1">
            <mxGeometry x="1030" y="-330" width="160" height="110.00000000000001" as="geometry" />
          </mxCell>
        </object>
        <object placeholders="1" c4Type="Relationship" c4Technology="https" c4Description="Authenticate - Online" label="&lt;div style=&quot;text-align: left&quot;&gt;&lt;div style=&quot;text-align: center&quot;&gt;&lt;b&gt;%c4Description%&lt;/b&gt;&lt;/div&gt;&lt;div style=&quot;text-align: center&quot;&gt;[%c4Technology%]&lt;/div&gt;&lt;/div&gt;" id="U4wcCVGJ9RebIwBSQEMv-1">
          <mxCell style="edgeStyle=none;html=1;entryX=0.5;entryY=1;jettySize=auto;orthogonalLoop=1;strokeColor=#707070;strokeWidth=2;fontColor=#707070;jumpStyle=none;dashed=1;metaEdit=1;metaData={&quot;c4Type&quot;:{&quot;editable&quot;:false}};exitX=1;exitY=0.5;exitDx=0;exitDy=0;exitPerimeter=0;entryDx=0;entryDy=0;entryPerimeter=0;curved=1;" parent="hHb4B-v7SG78cvWRyUYi-1" source="qQK2ZnO8fDEm6S95lJIe-0" target="U4wcCVGJ9RebIwBSQEMv-0" edge="1">
            <mxGeometry x="0.4388" y="1" width="160" relative="1" as="geometry">
              <mxPoint x="820" y="-60" as="sourcePoint" />
              <mxPoint x="980" y="-60" as="targetPoint" />
              <Array as="points">
                <mxPoint x="1140" y="100" />
              </Array>
              <mxPoint y="-1" as="offset" />
            </mxGeometry>
          </mxCell>
        </object>
        <object placeholders="1" c4Type="Relationship" c4Technology="Native" c4Description="Connection - Peer/Wifi" label="&lt;div style=&quot;text-align: left&quot;&gt;&lt;div style=&quot;text-align: center&quot;&gt;&lt;b&gt;%c4Description%&lt;/b&gt;&lt;/div&gt;&lt;div style=&quot;text-align: center&quot;&gt;[%c4Technology%]&lt;/div&gt;&lt;/div&gt;" id="U4wcCVGJ9RebIwBSQEMv-2">
          <mxCell style="edgeStyle=none;html=1;jettySize=auto;orthogonalLoop=1;strokeColor=#707070;strokeWidth=2;fontColor=#707070;jumpStyle=none;dashed=1;metaEdit=1;metaData={&quot;c4Type&quot;:{&quot;editable&quot;:false}};exitX=1;exitY=0.5;exitDx=0;exitDy=0;exitPerimeter=0;curved=1;" parent="hHb4B-v7SG78cvWRyUYi-1" source="qQK2ZnO8fDEm6S95lJIe-5" target="qQK2ZnO8fDEm6S95lJIe-2" edge="1">
            <mxGeometry width="160" relative="1" as="geometry">
              <mxPoint x="510" y="-60" as="sourcePoint" />
              <mxPoint x="670" y="-60" as="targetPoint" />
              <Array as="points">
                <mxPoint x="810" y="280" />
              </Array>
            </mxGeometry>
          </mxCell>
        </object>
        <object placeholders="1" c4Type="Relationship" c4Technology="Native" c4Description="Update Product, Inventory, Promotions, Profile" label="&lt;div style=&quot;text-align: left&quot;&gt;&lt;div style=&quot;text-align: center&quot;&gt;&lt;b&gt;%c4Description%&lt;/b&gt;&lt;/div&gt;&lt;div style=&quot;text-align: center&quot;&gt;[%c4Technology%]&lt;/div&gt;&lt;/div&gt;" id="U4wcCVGJ9RebIwBSQEMv-3">
          <mxCell style="edgeStyle=none;html=1;jettySize=auto;orthogonalLoop=1;strokeColor=#707070;strokeWidth=2;fontColor=#707070;jumpStyle=none;dashed=1;metaEdit=1;metaData={&quot;c4Type&quot;:{&quot;editable&quot;:false}};exitX=0.5;exitY=1;exitDx=0;exitDy=0;exitPerimeter=0;curved=1;" parent="hHb4B-v7SG78cvWRyUYi-1" source="qQK2ZnO8fDEm6S95lJIe-3" target="qQK2ZnO8fDEm6S95lJIe-4" edge="1">
            <mxGeometry x="-0.3624" y="64" width="160" relative="1" as="geometry">
              <mxPoint x="330" y="160" as="sourcePoint" />
              <mxPoint x="490" y="160" as="targetPoint" />
              <Array as="points">
                <mxPoint x="230" y="380" />
              </Array>
              <mxPoint x="-1" y="-1" as="offset" />
            </mxGeometry>
          </mxCell>
        </object>
        <object placeholders="1" c4Type="Relationship" c4Technology="Native" c4Description="Get Product, Inventory, Promotions, Profile" label="&lt;div style=&quot;text-align: left&quot;&gt;&lt;div style=&quot;text-align: center&quot;&gt;&lt;b&gt;%c4Description%&lt;/b&gt;&lt;/div&gt;&lt;div style=&quot;text-align: center&quot;&gt;[%c4Technology%]&lt;/div&gt;&lt;/div&gt;" id="U4wcCVGJ9RebIwBSQEMv-5">
          <mxCell style="edgeStyle=none;html=1;entryX=0.5;entryY=0;jettySize=auto;orthogonalLoop=1;strokeColor=#707070;strokeWidth=2;fontColor=#707070;jumpStyle=none;dashed=1;metaEdit=1;metaData={&quot;c4Type&quot;:{&quot;editable&quot;:false}};exitX=0.5;exitY=1;exitDx=0;exitDy=0;exitPerimeter=0;entryDx=0;entryDy=0;entryPerimeter=0;curved=1;" parent="hHb4B-v7SG78cvWRyUYi-1" source="qQK2ZnO8fDEm6S95lJIe-5" target="qQK2ZnO8fDEm6S95lJIe-4" edge="1">
            <mxGeometry width="160" relative="1" as="geometry">
              <mxPoint x="330" y="160" as="sourcePoint" />
              <mxPoint x="490" y="160" as="targetPoint" />
              <Array as="points">
                <mxPoint x="480" y="250" />
              </Array>
            </mxGeometry>
          </mxCell>
        </object>
        <object placeholders="1" c4Name="Printer" c4Type="Component" c4Technology="technology" c4Description="Description" label="&lt;b&gt;%c4Name%&lt;/b&gt;&lt;div&gt;[%c4Type%: %c4Technology%]&lt;/div&gt;&lt;br&gt;&lt;div&gt;%c4Description%&lt;/div&gt;" id="U4wcCVGJ9RebIwBSQEMv-7">
          <mxCell style="rounded=1;whiteSpace=wrap;html=1;labelBackgroundColor=none;fillColor=#85BBF0;fontColor=#ffffff;align=center;arcSize=10;strokeColor=#78A8D8;metaEdit=1;metaData={&quot;c4Type&quot;:{&quot;editable&quot;:false}};points=[[0.25,0,0],[0.5,0,0],[0.75,0,0],[1,0.25,0],[1,0.5,0],[1,0.75,0],[0.75,1,0],[0.5,1,0],[0.25,1,0],[0,0.75,0],[0,0.5,0],[0,0.25,0]];dashed=1;" parent="hHb4B-v7SG78cvWRyUYi-1" vertex="1">
            <mxGeometry x="760" y="-120" width="130" height="70" as="geometry" />
          </mxCell>
        </object>
        <object placeholders="1" c4Name="POS Pay Device" c4Type="Component" c4Technology="technology" c4Description="Description" label="&lt;b&gt;%c4Name%&lt;/b&gt;&lt;div&gt;[%c4Type%: %c4Technology%]&lt;/div&gt;&lt;br&gt;&lt;div&gt;%c4Description%&lt;/div&gt;" id="U4wcCVGJ9RebIwBSQEMv-8">
          <mxCell style="rounded=1;whiteSpace=wrap;html=1;labelBackgroundColor=none;fillColor=#85BBF0;fontColor=#ffffff;align=center;arcSize=10;strokeColor=#78A8D8;metaEdit=1;metaData={&quot;c4Type&quot;:{&quot;editable&quot;:false}};points=[[0.25,0,0],[0.5,0,0],[0.75,0,0],[1,0.25,0],[1,0.5,0],[1,0.75,0],[0.75,1,0],[0.5,1,0],[0.25,1,0],[0,0.75,0],[0,0.5,0],[0,0.25,0]];dashed=1;" parent="hHb4B-v7SG78cvWRyUYi-1" vertex="1">
            <mxGeometry x="910" y="-120" width="130" height="70" as="geometry" />
          </mxCell>
        </object>
        <object placeholders="1" c4Type="Relationship" c4Technology="Native" c4Description="Print Bill" label="&lt;div style=&quot;text-align: left&quot;&gt;&lt;div style=&quot;text-align: center&quot;&gt;&lt;b&gt;%c4Description%&lt;/b&gt;&lt;/div&gt;&lt;div style=&quot;text-align: center&quot;&gt;[%c4Technology%]&lt;/div&gt;&lt;/div&gt;" id="U4wcCVGJ9RebIwBSQEMv-9">
          <mxCell style="edgeStyle=none;rounded=0;html=1;entryX=0.5;entryY=1;jettySize=auto;orthogonalLoop=1;strokeColor=#707070;strokeWidth=2;fontColor=#707070;jumpStyle=none;dashed=1;metaEdit=1;metaData={&quot;c4Type&quot;:{&quot;editable&quot;:false}};entryDx=0;entryDy=0;entryPerimeter=0;exitX=1;exitY=0.5;exitDx=0;exitDy=0;exitPerimeter=0;" parent="hHb4B-v7SG78cvWRyUYi-1" source="qQK2ZnO8fDEm6S95lJIe-5" target="U4wcCVGJ9RebIwBSQEMv-7" edge="1">
            <mxGeometry width="160" relative="1" as="geometry">
              <mxPoint x="430" y="100" as="sourcePoint" />
              <mxPoint x="590" y="100" as="targetPoint" />
            </mxGeometry>
          </mxCell>
        </object>
        <object placeholders="1" c4Type="Relationship" c4Technology="Native" c4Description="Authorise Pay" label="&lt;div style=&quot;text-align: left&quot;&gt;&lt;div style=&quot;text-align: center&quot;&gt;&lt;b&gt;%c4Description%&lt;/b&gt;&lt;/div&gt;&lt;div style=&quot;text-align: center&quot;&gt;[%c4Technology%]&lt;/div&gt;&lt;/div&gt;" id="U4wcCVGJ9RebIwBSQEMv-10">
          <mxCell style="edgeStyle=none;rounded=0;html=1;entryX=0.5;entryY=1;jettySize=auto;orthogonalLoop=1;strokeColor=#707070;strokeWidth=2;fontColor=#707070;jumpStyle=none;dashed=1;metaEdit=1;metaData={&quot;c4Type&quot;:{&quot;editable&quot;:false}};entryDx=0;entryDy=0;entryPerimeter=0;exitX=1;exitY=0.5;exitDx=0;exitDy=0;exitPerimeter=0;" parent="hHb4B-v7SG78cvWRyUYi-1" source="qQK2ZnO8fDEm6S95lJIe-5" target="U4wcCVGJ9RebIwBSQEMv-8" edge="1">
            <mxGeometry width="160" relative="1" as="geometry">
              <mxPoint x="430" y="100" as="sourcePoint" />
              <mxPoint x="590" y="100" as="targetPoint" />
            </mxGeometry>
          </mxCell>
        </object>
      </root>
    </mxGraphModel>
  </diagram>
  <diagram id="nDlbVsvh4rNu1sDrsqNn" name="Page-3">
    <mxGraphModel dx="782" dy="412" grid="1" gridSize="10" guides="1" tooltips="1" connect="1" arrows="1" fold="1" page="1" pageScale="1" pageWidth="850" pageHeight="1100" math="0" shadow="0">
      <root>
        <mxCell id="leqoYVYISQwSx-7hlZUH-0" />
        <mxCell id="leqoYVYISQwSx-7hlZUH-1" parent="leqoYVYISQwSx-7hlZUH-0" />
        <mxCell id="I7Uxd2H_TZ9M6qsgHIa5-0" value="" style="rounded=0;whiteSpace=wrap;html=1;dashed=1;fillColor=#FFFFFF;" parent="leqoYVYISQwSx-7hlZUH-1" vertex="1">
          <mxGeometry x="10" y="80" width="740" height="550" as="geometry" />
        </mxCell>
        <object placeholders="1" c4Name="Reporting Tool" c4Type="Component" c4Technology="Power BI" c4Description="Description" label="&lt;b&gt;%c4Name%&lt;/b&gt;&lt;div&gt;[%c4Type%: %c4Technology%]&lt;/div&gt;&lt;br&gt;&lt;div&gt;%c4Description%&lt;/div&gt;" id="leqoYVYISQwSx-7hlZUH-2">
          <mxCell style="rounded=1;whiteSpace=wrap;html=1;labelBackgroundColor=none;fillColor=#85BBF0;fontColor=#ffffff;align=center;arcSize=10;strokeColor=#78A8D8;metaEdit=1;metaData={&quot;c4Type&quot;:{&quot;editable&quot;:false}};points=[[0.25,0,0],[0.5,0,0],[0.75,0,0],[1,0.25,0],[1,0.5,0],[1,0.75,0],[0.75,1,0],[0.5,1,0],[0.25,1,0],[0,0.75,0],[0,0.5,0],[0,0.25,0]];dashed=1;" parent="leqoYVYISQwSx-7hlZUH-1" vertex="1">
            <mxGeometry x="320" y="190" width="160" height="110.00000000000001" as="geometry" />
          </mxCell>
        </object>
        <object placeholders="1" c4Name="Cloud Data Warehouse" c4Type="Component" c4Technology="Snowflake / Redshift ***" c4Description="Description" label="&lt;b&gt;%c4Name%&lt;/b&gt;&lt;div&gt;[%c4Type%: %c4Technology%]&lt;/div&gt;&lt;br&gt;&lt;div&gt;%c4Description%&lt;/div&gt;" id="leqoYVYISQwSx-7hlZUH-3">
          <mxCell style="rounded=1;whiteSpace=wrap;html=1;labelBackgroundColor=none;fillColor=#85BBF0;fontColor=#ffffff;align=center;arcSize=10;strokeColor=#78A8D8;metaEdit=1;metaData={&quot;c4Type&quot;:{&quot;editable&quot;:false}};points=[[0.25,0,0],[0.5,0,0],[0.75,0,0],[1,0.25,0],[1,0.5,0],[1,0.75,0],[0.75,1,0],[0.5,1,0],[0.25,1,0],[0,0.75,0],[0,0.5,0],[0,0.25,0]];dashed=1;" parent="leqoYVYISQwSx-7hlZUH-1" vertex="1">
            <mxGeometry x="320" y="360" width="160" height="110.00000000000001" as="geometry" />
          </mxCell>
        </object>
        <object placeholders="1" c4Type="Relationship" c4Technology="Native" c4Description="" label="&lt;div style=&quot;text-align: left&quot;&gt;&lt;div style=&quot;text-align: center&quot;&gt;&lt;b&gt;%c4Description%&lt;/b&gt;&lt;/div&gt;&lt;div style=&quot;text-align: center&quot;&gt;[%c4Technology%]&lt;/div&gt;&lt;/div&gt;" id="SfgfQJ4X3x1jOMOgbVFB-1">
          <mxCell style="edgeStyle=none;rounded=0;html=1;jettySize=auto;orthogonalLoop=1;strokeColor=#707070;strokeWidth=2;fontColor=#707070;jumpStyle=none;dashed=1;metaEdit=1;metaData={&quot;c4Type&quot;:{&quot;editable&quot;:false}};" parent="leqoYVYISQwSx-7hlZUH-1" source="leqoYVYISQwSx-7hlZUH-2" target="leqoYVYISQwSx-7hlZUH-3" edge="1">
            <mxGeometry width="160" relative="1" as="geometry">
              <mxPoint x="320" y="340" as="sourcePoint" />
              <mxPoint x="480" y="340" as="targetPoint" />
            </mxGeometry>
          </mxCell>
        </object>
        <mxCell id="1o7fdQ83OQQSXqGiMQIY-0" value="Get Orders, Inventory &lt;br&gt;updates via Event Streaming" style="edgeStyle=orthogonalEdgeStyle;curved=1;orthogonalLoop=1;jettySize=auto;html=1;exitX=0.5;exitY=0;exitDx=0;exitDy=0;exitPerimeter=0;entryX=0.5;entryY=1;entryDx=0;entryDy=0;entryPerimeter=0;dashed=1;" parent="leqoYVYISQwSx-7hlZUH-1" source="1o7fdQ83OQQSXqGiMQIY-1" target="leqoYVYISQwSx-7hlZUH-3" edge="1">
          <mxGeometry relative="1" as="geometry">
            <mxPoint x="2170" y="445" as="targetPoint" />
          </mxGeometry>
        </mxCell>
        <object placeholders="1" c4Name="Retail API Service" c4Type="Container" c4Technology="SpringBoot / Quarkus****" c4Description="Retail API Service built using Microservice &amp; Exposed via API Gateway" label="&lt;b&gt;%c4Name%&lt;/b&gt;&lt;div&gt;[%c4Type%: %c4Technology%]&lt;/div&gt;&lt;br&gt;&lt;div&gt;%c4Description%&lt;/div&gt;" id="1o7fdQ83OQQSXqGiMQIY-1">
          <mxCell style="rounded=1;whiteSpace=wrap;html=1;labelBackgroundColor=none;fillColor=#438DD5;fontColor=#ffffff;align=center;arcSize=10;strokeColor=#3C7FC0;metaEdit=1;metaData={&quot;c4Type&quot;:{&quot;editable&quot;:false}};points=[[0.25,0,0],[0.5,0,0],[0.75,0,0],[1,0.25,0],[1,0.5,0],[1,0.75,0],[0.75,1,0],[0.5,1,0],[0.25,1,0],[0,0.75,0],[0,0.5,0],[0,0.25,0]];" parent="leqoYVYISQwSx-7hlZUH-1" vertex="1">
            <mxGeometry x="170" y="710" width="260" height="110" as="geometry" />
          </mxCell>
        </object>
        <mxCell id="1o7fdQ83OQQSXqGiMQIY-2" style="edgeStyle=orthogonalEdgeStyle;curved=1;orthogonalLoop=1;jettySize=auto;html=1;exitX=0.5;exitY=0;exitDx=0;exitDy=0;exitPerimeter=0;entryX=1;entryY=0.5;entryDx=0;entryDy=0;entryPerimeter=0;dashed=1;" parent="leqoYVYISQwSx-7hlZUH-1" source="1o7fdQ83OQQSXqGiMQIY-4" target="leqoYVYISQwSx-7hlZUH-3" edge="1">
          <mxGeometry relative="1" as="geometry">
            <mxPoint x="1720" y="555" as="targetPoint" />
          </mxGeometry>
        </mxCell>
        <mxCell id="1o7fdQ83OQQSXqGiMQIY-3" value="Get Profile Details (Customer, Supplier, Partner) via Batch" style="edgeLabel;html=1;align=center;verticalAlign=middle;resizable=0;points=[];" parent="1o7fdQ83OQQSXqGiMQIY-2" vertex="1" connectable="0">
          <mxGeometry x="0.529" y="58" relative="1" as="geometry">
            <mxPoint x="-1" as="offset" />
          </mxGeometry>
        </mxCell>
        <object placeholders="1" c4Type="Database" c4Technology="DynamoDB" c4Description="Retail Database holding Products, Promotions, Customer, Supplier, Partner Information, Exchange Rates" label="%c4Type%&lt;div&gt;[Container:&amp;nbsp;%c4Technology%]&lt;/div&gt;&lt;br&gt;&lt;div&gt;%c4Description%&lt;/div&gt;" id="1o7fdQ83OQQSXqGiMQIY-4">
          <mxCell style="shape=cylinder;whiteSpace=wrap;html=1;boundedLbl=1;rounded=0;labelBackgroundColor=none;fillColor=#438DD5;fontSize=12;fontColor=#ffffff;align=center;strokeColor=#3C7FC0;metaEdit=1;points=[[0.5,0,0],[1,0.25,0],[1,0.5,0],[1,0.75,0],[0.5,1,0],[0,0.75,0],[0,0.5,0],[0,0.25,0]];metaData={&quot;c4Type&quot;:{&quot;editable&quot;:false}};" parent="leqoYVYISQwSx-7hlZUH-1" vertex="1">
            <mxGeometry x="550" y="695" width="160" height="140" as="geometry" />
          </mxCell>
        </object>
      </root>
    </mxGraphModel>
  </diagram>
  <diagram id="Hea-rUUSr3WR-geJ6Lra" name="Page-4">
    <mxGraphModel dx="2414" dy="1924" grid="1" gridSize="10" guides="1" tooltips="1" connect="1" arrows="1" fold="1" page="1" pageScale="1" pageWidth="850" pageHeight="1100" math="0" shadow="0">
      <root>
        <mxCell id="5zF-SPD1UM_-7n-HkHuq-0" />
        <mxCell id="5zF-SPD1UM_-7n-HkHuq-1" parent="5zF-SPD1UM_-7n-HkHuq-0" />
        <mxCell id="YZUz14f7aON3yymr8x-H-0" value="" style="rounded=0;whiteSpace=wrap;html=1;dashed=1;fillColor=#FFFFFF;" parent="5zF-SPD1UM_-7n-HkHuq-1" vertex="1">
          <mxGeometry x="10" y="-170" width="1280" height="510" as="geometry" />
        </mxCell>
        <object placeholders="1" c4Name="Retail Service/UI Shell" c4Type="Component" c4Technology="technology" c4Description="Description" label="&lt;b&gt;%c4Name%&lt;/b&gt;&lt;div&gt;[%c4Type%: %c4Technology%]&lt;/div&gt;&lt;br&gt;&lt;div&gt;%c4Description%&lt;/div&gt;" id="5zF-SPD1UM_-7n-HkHuq-2">
          <mxCell style="rounded=1;whiteSpace=wrap;html=1;labelBackgroundColor=none;fillColor=#85BBF0;fontColor=#ffffff;align=center;arcSize=10;strokeColor=#78A8D8;metaEdit=1;metaData={&quot;c4Type&quot;:{&quot;editable&quot;:false}};points=[[0.25,0,0],[0.5,0,0],[0.75,0,0],[1,0.25,0],[1,0.5,0],[1,0.75,0],[0.75,1,0],[0.5,1,0],[0.25,1,0],[0,0.75,0],[0,0.5,0],[0,0.25,0]];dashed=1;" parent="5zF-SPD1UM_-7n-HkHuq-1" vertex="1">
            <mxGeometry x="280" y="-40" width="430" height="110" as="geometry" />
          </mxCell>
        </object>
        <object placeholders="1" c4Name="Identifier (IFE-Seat)" c4Type="Component" c4Technology="technology" c4Description="Description" label="&lt;b&gt;%c4Name%&lt;/b&gt;&lt;div&gt;[%c4Type%: %c4Technology%]&lt;/div&gt;&lt;br&gt;&lt;div&gt;%c4Description%&lt;/div&gt;" id="5zF-SPD1UM_-7n-HkHuq-3">
          <mxCell style="rounded=1;whiteSpace=wrap;html=1;labelBackgroundColor=none;fillColor=#85BBF0;fontColor=#ffffff;align=center;arcSize=10;strokeColor=#78A8D8;metaEdit=1;metaData={&quot;c4Type&quot;:{&quot;editable&quot;:false}};points=[[0.25,0,0],[0.5,0,0],[0.75,0,0],[1,0.25,0],[1,0.5,0],[1,0.75,0],[0.75,1,0],[0.5,1,0],[0.25,1,0],[0,0.75,0],[0,0.5,0],[0,0.25,0]];dashed=1;" parent="5zF-SPD1UM_-7n-HkHuq-1" vertex="1">
            <mxGeometry x="30" y="-40" width="160" height="110.00000000000001" as="geometry" />
          </mxCell>
        </object>
        <object placeholders="1" c4Name="Authenticator (Offline)" c4Type="Component" c4Technology="technology" c4Description="Description" label="&lt;b&gt;%c4Name%&lt;/b&gt;&lt;div&gt;[%c4Type%: %c4Technology%]&lt;/div&gt;&lt;br&gt;&lt;div&gt;%c4Description%&lt;/div&gt;" id="YZUz14f7aON3yymr8x-H-1">
          <mxCell style="rounded=1;whiteSpace=wrap;html=1;labelBackgroundColor=none;fillColor=#85BBF0;fontColor=#ffffff;align=center;arcSize=10;strokeColor=#78A8D8;metaEdit=1;metaData={&quot;c4Type&quot;:{&quot;editable&quot;:false}};points=[[0.25,0,0],[0.5,0,0],[0.75,0,0],[1,0.25,0],[1,0.5,0],[1,0.75,0],[0.75,1,0],[0.5,1,0],[0.25,1,0],[0,0.75,0],[0,0.5,0],[0,0.25,0]];dashed=1;" parent="5zF-SPD1UM_-7n-HkHuq-1" vertex="1">
            <mxGeometry x="745" y="175" width="160" height="110.00000000000001" as="geometry" />
          </mxCell>
        </object>
        <object placeholders="1" c4Name="Retail API Service" c4Type="Container" c4Technology="SpringBoot / Quarkus****" c4Description="Retail API Service built using Microservice &amp; Exposed via API Gateway" label="&lt;b&gt;%c4Name%&lt;/b&gt;&lt;div&gt;[%c4Type%: %c4Technology%]&lt;/div&gt;&lt;br&gt;&lt;div&gt;%c4Description%&lt;/div&gt;" id="YZUz14f7aON3yymr8x-H-2">
          <mxCell style="rounded=1;whiteSpace=wrap;html=1;labelBackgroundColor=none;fillColor=#438DD5;fontColor=#ffffff;align=center;arcSize=10;strokeColor=#3C7FC0;metaEdit=1;metaData={&quot;c4Type&quot;:{&quot;editable&quot;:false}};points=[[0.25,0,0],[0.5,0,0],[0.75,0,0],[1,0.25,0],[1,0.5,0],[1,0.75,0],[0.75,1,0],[0.5,1,0],[0.25,1,0],[0,0.75,0],[0,0.5,0],[0,0.25,0]];" parent="5zF-SPD1UM_-7n-HkHuq-1" vertex="1">
            <mxGeometry x="215" y="-330" width="510" height="110" as="geometry" />
          </mxCell>
        </object>
        <object placeholders="1" c4Type="Relationship" c4Technology="Https" c4Description="Manage Orders, Inventory" label="&lt;div style=&quot;text-align: left&quot;&gt;&lt;div style=&quot;text-align: center&quot;&gt;&lt;b&gt;%c4Description%&lt;/b&gt;&lt;/div&gt;&lt;div style=&quot;text-align: center&quot;&gt;[%c4Technology%]&lt;/div&gt;&lt;/div&gt;" id="YZUz14f7aON3yymr8x-H-3">
          <mxCell style="edgeStyle=none;rounded=0;html=1;entryX=0.5;entryY=1;jettySize=auto;orthogonalLoop=1;strokeColor=#707070;strokeWidth=2;fontColor=#707070;jumpStyle=none;dashed=1;metaEdit=1;metaData={&quot;c4Type&quot;:{&quot;editable&quot;:false}};entryDx=0;entryDy=0;entryPerimeter=0;exitX=0.474;exitY=0.03;exitDx=0;exitDy=0;exitPerimeter=0;" parent="5zF-SPD1UM_-7n-HkHuq-1" source="5zF-SPD1UM_-7n-HkHuq-2" target="YZUz14f7aON3yymr8x-H-2" edge="1">
            <mxGeometry width="160" relative="1" as="geometry">
              <mxPoint x="510" y="-10" as="sourcePoint" />
              <mxPoint x="370" y="-20" as="targetPoint" />
            </mxGeometry>
          </mxCell>
        </object>
        <object placeholders="1" c4Name="Identity &amp; Security Service" c4Type="Container" c4Technology="AzureAD B2B &amp; B2C / Okta**" c4Description="Handles Authentication and Handles Authentication and Authorisation" label="&lt;b&gt;%c4Name%&lt;/b&gt;&lt;div&gt;[%c4Type%: %c4Technology%]&lt;/div&gt;&lt;br&gt;&lt;div&gt;%c4Description%&lt;/div&gt;" id="YZUz14f7aON3yymr8x-H-4">
          <mxCell style="rounded=1;whiteSpace=wrap;html=1;labelBackgroundColor=none;fillColor=#438DD5;fontColor=#ffffff;align=center;arcSize=10;strokeColor=#3C7FC0;metaEdit=1;metaData={&quot;c4Type&quot;:{&quot;editable&quot;:false}};points=[[0.25,0,0],[0.5,0,0],[0.75,0,0],[1,0.25,0],[1,0.5,0],[1,0.75,0],[0.75,1,0],[0.5,1,0],[0.25,1,0],[0,0.75,0],[0,0.5,0],[0,0.25,0]];" parent="5zF-SPD1UM_-7n-HkHuq-1" vertex="1">
            <mxGeometry x="1340" y="130" width="160" height="110.00000000000001" as="geometry" />
          </mxCell>
        </object>
        <object placeholders="1" c4Name="Printer" c4Type="Component" c4Technology="technology" c4Description="Description" label="&lt;b&gt;%c4Name%&lt;/b&gt;&lt;div&gt;[%c4Type%: %c4Technology%]&lt;/div&gt;&lt;br&gt;&lt;div&gt;%c4Description%&lt;/div&gt;" id="YZUz14f7aON3yymr8x-H-5">
          <mxCell style="rounded=1;whiteSpace=wrap;html=1;labelBackgroundColor=none;fillColor=#85BBF0;fontColor=#ffffff;align=center;arcSize=10;strokeColor=#78A8D8;metaEdit=1;metaData={&quot;c4Type&quot;:{&quot;editable&quot;:false}};points=[[0.25,0,0],[0.5,0,0],[0.75,0,0],[1,0.25,0],[1,0.5,0],[1,0.75,0],[0.75,1,0],[0.5,1,0],[0.25,1,0],[0,0.75,0],[0,0.5,0],[0,0.25,0]];dashed=1;" parent="5zF-SPD1UM_-7n-HkHuq-1" vertex="1">
            <mxGeometry x="760" y="-120" width="130" height="70" as="geometry" />
          </mxCell>
        </object>
        <object placeholders="1" c4Name="POS Pay Device" c4Type="Component" c4Technology="technology" c4Description="Description" label="&lt;b&gt;%c4Name%&lt;/b&gt;&lt;div&gt;[%c4Type%: %c4Technology%]&lt;/div&gt;&lt;br&gt;&lt;div&gt;%c4Description%&lt;/div&gt;" id="YZUz14f7aON3yymr8x-H-6">
          <mxCell style="rounded=1;whiteSpace=wrap;html=1;labelBackgroundColor=none;fillColor=#85BBF0;fontColor=#ffffff;align=center;arcSize=10;strokeColor=#78A8D8;metaEdit=1;metaData={&quot;c4Type&quot;:{&quot;editable&quot;:false}};points=[[0.25,0,0],[0.5,0,0],[0.75,0,0],[1,0.25,0],[1,0.5,0],[1,0.75,0],[0.75,1,0],[0.5,1,0],[0.25,1,0],[0,0.75,0],[0,0.5,0],[0,0.25,0]];dashed=1;" parent="5zF-SPD1UM_-7n-HkHuq-1" vertex="1">
            <mxGeometry x="910" y="-120" width="130" height="70" as="geometry" />
          </mxCell>
        </object>
        <object placeholders="1" c4Type="Relationship" c4Technology="Native" c4Description="Print Bill" label="&lt;div style=&quot;text-align: left&quot;&gt;&lt;div style=&quot;text-align: center&quot;&gt;&lt;b&gt;%c4Description%&lt;/b&gt;&lt;/div&gt;&lt;div style=&quot;text-align: center&quot;&gt;[%c4Technology%]&lt;/div&gt;&lt;/div&gt;" id="o2Y20Cpzdjw64K6CS6O6-0">
          <mxCell style="edgeStyle=none;rounded=0;html=1;jettySize=auto;orthogonalLoop=1;strokeColor=#707070;strokeWidth=2;fontColor=#707070;jumpStyle=none;dashed=1;metaEdit=1;metaData={&quot;c4Type&quot;:{&quot;editable&quot;:false}};" parent="5zF-SPD1UM_-7n-HkHuq-1" target="YZUz14f7aON3yymr8x-H-5" edge="1">
            <mxGeometry width="160" relative="1" as="geometry">
              <mxPoint x="710" y="20" as="sourcePoint" />
              <mxPoint x="825" y="-50" as="targetPoint" />
            </mxGeometry>
          </mxCell>
        </object>
        <object placeholders="1" c4Type="Relationship" c4Technology="Native" c4Description="Authorise Pay" label="&lt;div style=&quot;text-align: left&quot;&gt;&lt;div style=&quot;text-align: center&quot;&gt;&lt;b&gt;%c4Description%&lt;/b&gt;&lt;/div&gt;&lt;div style=&quot;text-align: center&quot;&gt;[%c4Technology%]&lt;/div&gt;&lt;/div&gt;" id="o2Y20Cpzdjw64K6CS6O6-1">
          <mxCell style="edgeStyle=none;rounded=0;html=1;entryX=0.631;entryY=1;jettySize=auto;orthogonalLoop=1;strokeColor=#707070;strokeWidth=2;fontColor=#707070;jumpStyle=none;dashed=1;metaEdit=1;metaData={&quot;c4Type&quot;:{&quot;editable&quot;:false}};entryDx=0;entryDy=0;entryPerimeter=0;exitX=1;exitY=0.5;exitDx=0;exitDy=0;exitPerimeter=0;" parent="5zF-SPD1UM_-7n-HkHuq-1" source="5zF-SPD1UM_-7n-HkHuq-2" target="YZUz14f7aON3yymr8x-H-6" edge="1">
            <mxGeometry width="160" relative="1" as="geometry">
              <mxPoint x="700" y="45" as="sourcePoint" />
              <mxPoint x="975" y="-50" as="targetPoint" />
            </mxGeometry>
          </mxCell>
        </object>
        <object placeholders="1" c4Name="IFE System" c4Type="Software System" c4Description="Description" label="&lt;b&gt;%c4Name%&lt;/b&gt;&lt;div&gt;[%c4Type%]&lt;/div&gt;&lt;br&gt;&lt;div&gt;%c4Description%&lt;/div&gt;" id="o2Y20Cpzdjw64K6CS6O6-2">
          <mxCell style="rounded=1;whiteSpace=wrap;html=1;labelBackgroundColor=none;fillColor=#999999;fontColor=#ffffff;align=center;arcSize=10;strokeColor=#8A8A8A;metaEdit=1;metaData={&quot;c4Type&quot;:{&quot;editable&quot;:false}};points=[[0.25,0,0],[0.5,0,0],[0.75,0,0],[1,0.25,0],[1,0.5,0],[1,0.75,0],[0.75,1,0],[0.5,1,0],[0.25,1,0],[0,0.75,0],[0,0.5,0],[0,0.25,0]];dashed=1;" parent="5zF-SPD1UM_-7n-HkHuq-1" vertex="1">
            <mxGeometry x="-320" y="-40" width="160" height="110.00000000000001" as="geometry" />
          </mxCell>
        </object>
        <object placeholders="1" c4Type="Relationship" c4Technology="Http/Native" c4Description="Get PAX Seat" label="&lt;div style=&quot;text-align: left&quot;&gt;&lt;div style=&quot;text-align: center&quot;&gt;&lt;b&gt;%c4Description%&lt;/b&gt;&lt;/div&gt;&lt;div style=&quot;text-align: center&quot;&gt;[%c4Technology%]&lt;/div&gt;&lt;/div&gt;" id="o2Y20Cpzdjw64K6CS6O6-3">
          <mxCell style="edgeStyle=none;rounded=0;html=1;entryX=1;entryY=0.5;jettySize=auto;orthogonalLoop=1;strokeColor=#707070;strokeWidth=2;fontColor=#707070;jumpStyle=none;dashed=1;metaEdit=1;metaData={&quot;c4Type&quot;:{&quot;editable&quot;:false}};exitX=0;exitY=0.5;exitDx=0;exitDy=0;exitPerimeter=0;entryDx=0;entryDy=0;entryPerimeter=0;" parent="5zF-SPD1UM_-7n-HkHuq-1" source="5zF-SPD1UM_-7n-HkHuq-3" target="o2Y20Cpzdjw64K6CS6O6-2" edge="1">
            <mxGeometry width="160" relative="1" as="geometry">
              <mxPoint x="240" y="40" as="sourcePoint" />
              <mxPoint x="400" y="40" as="targetPoint" />
            </mxGeometry>
          </mxCell>
        </object>
        <object placeholders="1" c4Type="Relationship" c4Technology="Http/Native" c4Description="Get PAX Seat" label="&lt;div style=&quot;text-align: left&quot;&gt;&lt;div style=&quot;text-align: center&quot;&gt;&lt;b&gt;%c4Description%&lt;/b&gt;&lt;/div&gt;&lt;div style=&quot;text-align: center&quot;&gt;[%c4Technology%]&lt;/div&gt;&lt;/div&gt;" id="o2Y20Cpzdjw64K6CS6O6-8">
          <mxCell style="edgeStyle=none;rounded=0;html=1;entryX=1;entryY=0.5;jettySize=auto;orthogonalLoop=1;strokeColor=#707070;strokeWidth=2;fontColor=#707070;jumpStyle=none;dashed=1;metaEdit=1;metaData={&quot;c4Type&quot;:{&quot;editable&quot;:false}};exitX=0;exitY=0.5;exitDx=0;exitDy=0;exitPerimeter=0;entryDx=0;entryDy=0;entryPerimeter=0;" parent="5zF-SPD1UM_-7n-HkHuq-1" source="5zF-SPD1UM_-7n-HkHuq-2" target="5zF-SPD1UM_-7n-HkHuq-3" edge="1">
            <mxGeometry width="160" relative="1" as="geometry">
              <mxPoint x="-250" y="355" as="sourcePoint" />
              <mxPoint x="-150" y="25" as="targetPoint" />
            </mxGeometry>
          </mxCell>
        </object>
        <object placeholders="1" c4Type="Relationship" c4Technology="Native" c4Description="Authenticate" label="&lt;div style=&quot;text-align: left&quot;&gt;&lt;div style=&quot;text-align: center&quot;&gt;&lt;b&gt;%c4Description%&lt;/b&gt;&lt;/div&gt;&lt;div style=&quot;text-align: center&quot;&gt;[%c4Technology%]&lt;/div&gt;&lt;/div&gt;" id="Ql1k-izrtkkGMkZdJ7eb-0">
          <mxCell style="edgeStyle=none;html=1;jettySize=auto;orthogonalLoop=1;strokeColor=#707070;strokeWidth=2;fontColor=#707070;jumpStyle=none;dashed=1;metaEdit=1;metaData={&quot;c4Type&quot;:{&quot;editable&quot;:false}};exitX=0.442;exitY=0.927;exitDx=0;exitDy=0;exitPerimeter=0;curved=1;entryX=0.5;entryY=0;entryDx=0;entryDy=0;entryPerimeter=0;" parent="5zF-SPD1UM_-7n-HkHuq-1" source="5zF-SPD1UM_-7n-HkHuq-2" target="YZUz14f7aON3yymr8x-H-1" edge="1">
            <mxGeometry width="160" relative="1" as="geometry">
              <mxPoint x="700" y="45" as="sourcePoint" />
              <mxPoint x="960" y="122.40740740740739" as="targetPoint" />
              <Array as="points">
                <mxPoint x="770" y="140" />
              </Array>
            </mxGeometry>
          </mxCell>
        </object>
        <object placeholders="1" c4Type="Relationship" c4Technology="https" c4Description="Authenticate - Online" label="&lt;div style=&quot;text-align: left&quot;&gt;&lt;div style=&quot;text-align: center&quot;&gt;&lt;b&gt;%c4Description%&lt;/b&gt;&lt;/div&gt;&lt;div style=&quot;text-align: center&quot;&gt;[%c4Technology%]&lt;/div&gt;&lt;/div&gt;" id="IoHE7aWkwJX_slnTAbdS-0">
          <mxCell style="edgeStyle=none;html=1;jettySize=auto;orthogonalLoop=1;strokeColor=#707070;strokeWidth=2;fontColor=#707070;jumpStyle=none;dashed=1;metaEdit=1;metaData={&quot;c4Type&quot;:{&quot;editable&quot;:false}};exitX=1;exitY=0.5;exitDx=0;exitDy=0;exitPerimeter=0;curved=1;entryX=0.608;entryY=0.958;entryDx=0;entryDy=0;entryPerimeter=0;" parent="5zF-SPD1UM_-7n-HkHuq-1" source="YZUz14f7aON3yymr8x-H-1" target="YZUz14f7aON3yymr8x-H-4" edge="1">
            <mxGeometry x="0.4388" y="1" width="160" relative="1" as="geometry">
              <mxPoint x="1120" y="115" as="sourcePoint" />
              <mxPoint x="1110" y="-240" as="targetPoint" />
              <Array as="points">
                <mxPoint x="1140" y="100" />
              </Array>
              <mxPoint y="-1" as="offset" />
            </mxGeometry>
          </mxCell>
        </object>
      </root>
    </mxGraphModel>
  </diagram>
  <diagram id="HviBUlNdNVW3NZuzD11g" name="Page-5">
    <mxGraphModel dx="782" dy="412" grid="1" gridSize="10" guides="1" tooltips="1" connect="1" arrows="1" fold="1" page="1" pageScale="1" pageWidth="850" pageHeight="1100" math="0" shadow="0">
      <root>
        <mxCell id="-UK6JJFq_qlXuzXQz1XE-0" />
        <mxCell id="-UK6JJFq_qlXuzXQz1XE-1" parent="-UK6JJFq_qlXuzXQz1XE-0" />
        <object placeholders="1" c4Name="Recommendation Service for Mgmt" c4Type="Component" c4Technology="technology" c4Description="Description" label="&lt;b&gt;%c4Name%&lt;/b&gt;&lt;div&gt;[%c4Type%: %c4Technology%]&lt;/div&gt;&lt;br&gt;&lt;div&gt;%c4Description%&lt;/div&gt;" id="-UK6JJFq_qlXuzXQz1XE-2">
          <mxCell style="rounded=1;whiteSpace=wrap;html=1;labelBackgroundColor=none;fillColor=#85BBF0;fontColor=#ffffff;align=center;arcSize=10;strokeColor=#78A8D8;metaEdit=1;metaData={&quot;c4Type&quot;:{&quot;editable&quot;:false}};points=[[0.25,0,0],[0.5,0,0],[0.75,0,0],[1,0.25,0],[1,0.5,0],[1,0.75,0],[0.75,1,0],[0.5,1,0],[0.25,1,0],[0,0.75,0],[0,0.5,0],[0,0.25,0]];dashed=1;" parent="-UK6JJFq_qlXuzXQz1XE-1" vertex="1">
            <mxGeometry x="110" y="180" width="160" height="110.00000000000001" as="geometry" />
          </mxCell>
        </object>
        <object placeholders="1" c4Name="Recommendation Service for Crew" c4Type="Component" c4Technology="technology" c4Description="Description" label="&lt;b&gt;%c4Name%&lt;/b&gt;&lt;div&gt;[%c4Type%: %c4Technology%]&lt;/div&gt;&lt;br&gt;&lt;div&gt;%c4Description%&lt;/div&gt;" id="-UK6JJFq_qlXuzXQz1XE-3">
          <mxCell style="rounded=1;whiteSpace=wrap;html=1;labelBackgroundColor=none;fillColor=#85BBF0;fontColor=#ffffff;align=center;arcSize=10;strokeColor=#78A8D8;metaEdit=1;metaData={&quot;c4Type&quot;:{&quot;editable&quot;:false}};points=[[0.25,0,0],[0.5,0,0],[0.75,0,0],[1,0.25,0],[1,0.5,0],[1,0.75,0],[0.75,1,0],[0.5,1,0],[0.25,1,0],[0,0.75,0],[0,0.5,0],[0,0.25,0]];dashed=1;" parent="-UK6JJFq_qlXuzXQz1XE-1" vertex="1">
            <mxGeometry x="340" y="180" width="160" height="110.00000000000001" as="geometry" />
          </mxCell>
        </object>
        <object placeholders="1" c4Name="Recommendation Service for Customer" c4Type="Component" c4Technology="technology" c4Description="Description" label="&lt;b&gt;%c4Name%&lt;/b&gt;&lt;div&gt;[%c4Type%: %c4Technology%]&lt;/div&gt;&lt;br&gt;&lt;div&gt;%c4Description%&lt;/div&gt;" id="-UK6JJFq_qlXuzXQz1XE-4">
          <mxCell style="rounded=1;whiteSpace=wrap;html=1;labelBackgroundColor=none;fillColor=#85BBF0;fontColor=#ffffff;align=center;arcSize=10;strokeColor=#78A8D8;metaEdit=1;metaData={&quot;c4Type&quot;:{&quot;editable&quot;:false}};points=[[0.25,0,0],[0.5,0,0],[0.75,0,0],[1,0.25,0],[1,0.5,0],[1,0.75,0],[0.75,1,0],[0.5,1,0],[0.25,1,0],[0,0.75,0],[0,0.5,0],[0,0.25,0]];dashed=1;" parent="-UK6JJFq_qlXuzXQz1XE-1" vertex="1">
            <mxGeometry x="590" y="180" width="160" height="110.00000000000001" as="geometry" />
          </mxCell>
        </object>
      </root>
    </mxGraphModel>
  </diagram>
  <diagram id="C-BtRllu3kWejZPLGOaU" name="Page-6">
    <mxGraphModel dx="1564" dy="824" grid="1" gridSize="10" guides="1" tooltips="1" connect="1" arrows="1" fold="1" page="1" pageScale="1" pageWidth="850" pageHeight="1100" math="0" shadow="0">
      <root>
        <mxCell id="1P-0DzJTkieSUqBDdr5q-0" />
        <mxCell id="1P-0DzJTkieSUqBDdr5q-1" parent="1P-0DzJTkieSUqBDdr5q-0" />
        <object placeholders="1" c4Name="Cart and Order Service" c4Type="Component" c4Technology="Spring Boot" c4Description="Description" label="&lt;b&gt;%c4Name%&lt;/b&gt;&lt;div&gt;[%c4Type%: %c4Technology%]&lt;/div&gt;&lt;br&gt;&lt;div&gt;%c4Description%&lt;/div&gt;" id="1P-0DzJTkieSUqBDdr5q-2">
          <mxCell style="rounded=1;whiteSpace=wrap;html=1;labelBackgroundColor=none;fillColor=#85BBF0;fontColor=#ffffff;align=center;arcSize=10;strokeColor=#78A8D8;metaEdit=1;metaData={&quot;c4Type&quot;:{&quot;editable&quot;:false}};points=[[0.25,0,0],[0.5,0,0],[0.75,0,0],[1,0.25,0],[1,0.5,0],[1,0.75,0],[0.75,1,0],[0.5,1,0],[0.25,1,0],[0,0.75,0],[0,0.5,0],[0,0.25,0]];dashed=1;" parent="1P-0DzJTkieSUqBDdr5q-1" vertex="1">
            <mxGeometry x="1440" y="180" width="160" height="110.00000000000001" as="geometry" />
          </mxCell>
        </object>
        <object placeholders="1" c4Name="Flight Service" c4Type="Component" c4Technology="Spring Boot" c4Description="Description" label="&lt;b&gt;%c4Name%&lt;/b&gt;&lt;div&gt;[%c4Type%: %c4Technology%]&lt;/div&gt;&lt;br&gt;&lt;div&gt;%c4Description%&lt;/div&gt;" id="1P-0DzJTkieSUqBDdr5q-3">
          <mxCell style="rounded=1;whiteSpace=wrap;html=1;labelBackgroundColor=none;fillColor=#85BBF0;fontColor=#ffffff;align=center;arcSize=10;strokeColor=#78A8D8;metaEdit=1;metaData={&quot;c4Type&quot;:{&quot;editable&quot;:false}};points=[[0.25,0,0],[0.5,0,0],[0.75,0,0],[1,0.25,0],[1,0.5,0],[1,0.75,0],[0.75,1,0],[0.5,1,0],[0.25,1,0],[0,0.75,0],[0,0.5,0],[0,0.25,0]];dashed=1;" parent="1P-0DzJTkieSUqBDdr5q-1" vertex="1">
            <mxGeometry x="30" y="160" width="160" height="110.00000000000001" as="geometry" />
          </mxCell>
        </object>
        <object placeholders="1" c4Name="Inventory Service" c4Type="Component" c4Technology="technology" c4Description="Description" label="&lt;b&gt;%c4Name%&lt;/b&gt;&lt;div&gt;[%c4Type%: %c4Technology%]&lt;/div&gt;&lt;br&gt;&lt;div&gt;%c4Description%&lt;/div&gt;" id="1P-0DzJTkieSUqBDdr5q-5">
          <mxCell style="rounded=1;whiteSpace=wrap;html=1;labelBackgroundColor=none;fillColor=#85BBF0;fontColor=#ffffff;align=center;arcSize=10;strokeColor=#78A8D8;metaEdit=1;metaData={&quot;c4Type&quot;:{&quot;editable&quot;:false}};points=[[0.25,0,0],[0.5,0,0],[0.75,0,0],[1,0.25,0],[1,0.5,0],[1,0.75,0],[0.75,1,0],[0.5,1,0],[0.25,1,0],[0,0.75,0],[0,0.5,0],[0,0.25,0]];dashed=1;" parent="1P-0DzJTkieSUqBDdr5q-1" vertex="1">
            <mxGeometry x="1660" y="180" width="160" height="110.00000000000001" as="geometry" />
          </mxCell>
        </object>
        <object placeholders="1" c4Name="Payment Service" c4Type="Component" c4Technology="Spring Boot" c4Description="Description" label="&lt;b&gt;%c4Name%&lt;/b&gt;&lt;div&gt;[%c4Type%: %c4Technology%]&lt;/div&gt;&lt;br&gt;&lt;div&gt;%c4Description%&lt;/div&gt;" id="1P-0DzJTkieSUqBDdr5q-6">
          <mxCell style="rounded=1;whiteSpace=wrap;html=1;labelBackgroundColor=none;fillColor=#85BBF0;fontColor=#ffffff;align=center;arcSize=10;strokeColor=#78A8D8;metaEdit=1;metaData={&quot;c4Type&quot;:{&quot;editable&quot;:false}};points=[[0.25,0,0],[0.5,0,0],[0.75,0,0],[1,0.25,0],[1,0.5,0],[1,0.75,0],[0.75,1,0],[0.5,1,0],[0.25,1,0],[0,0.75,0],[0,0.5,0],[0,0.25,0]];dashed=1;" parent="1P-0DzJTkieSUqBDdr5q-1" vertex="1">
            <mxGeometry x="600" y="160" width="160" height="110.00000000000001" as="geometry" />
          </mxCell>
        </object>
        <object placeholders="1" c4Name="Product Search" c4Type="Component" c4Technology="Elastic Search" c4Description="Description" label="&lt;b&gt;%c4Name%&lt;/b&gt;&lt;div&gt;[%c4Type%: %c4Technology%]&lt;/div&gt;&lt;br&gt;&lt;div&gt;%c4Description%&lt;/div&gt;" id="1P-0DzJTkieSUqBDdr5q-7">
          <mxCell style="rounded=1;whiteSpace=wrap;html=1;labelBackgroundColor=none;fillColor=#85BBF0;fontColor=#ffffff;align=center;arcSize=10;strokeColor=#78A8D8;metaEdit=1;metaData={&quot;c4Type&quot;:{&quot;editable&quot;:false}};points=[[0.25,0,0],[0.5,0,0],[0.75,0,0],[1,0.25,0],[1,0.5,0],[1,0.75,0],[0.75,1,0],[0.5,1,0],[0.25,1,0],[0,0.75,0],[0,0.5,0],[0,0.25,0]];dashed=1;" parent="1P-0DzJTkieSUqBDdr5q-1" vertex="1">
            <mxGeometry x="410" y="160" width="160" height="110.00000000000001" as="geometry" />
          </mxCell>
        </object>
        <object placeholders="1" c4Name="Product/Catalogue Service" c4Type="Component" c4Technology="Spring Boot" c4Description="Description" label="&lt;b&gt;%c4Name%&lt;/b&gt;&lt;div&gt;[%c4Type%: %c4Technology%]&lt;/div&gt;&lt;br&gt;&lt;div&gt;%c4Description%&lt;/div&gt;" id="1P-0DzJTkieSUqBDdr5q-8">
          <mxCell style="rounded=1;whiteSpace=wrap;html=1;labelBackgroundColor=none;fillColor=#85BBF0;fontColor=#ffffff;align=center;arcSize=10;strokeColor=#78A8D8;metaEdit=1;metaData={&quot;c4Type&quot;:{&quot;editable&quot;:false}};points=[[0.25,0,0],[0.5,0,0],[0.75,0,0],[1,0.25,0],[1,0.5,0],[1,0.75,0],[0.75,1,0],[0.5,1,0],[0.25,1,0],[0,0.75,0],[0,0.5,0],[0,0.25,0]];dashed=1;" parent="1P-0DzJTkieSUqBDdr5q-1" vertex="1">
            <mxGeometry x="220" y="160" width="160" height="110.00000000000001" as="geometry" />
          </mxCell>
        </object>
        <object placeholders="1" c4Name="Promotions Service" c4Type="Component" c4Technology="Spring Boot" c4Description="Description" label="&lt;b&gt;%c4Name%&lt;/b&gt;&lt;div&gt;[%c4Type%: %c4Technology%]&lt;/div&gt;&lt;br&gt;&lt;div&gt;%c4Description%&lt;/div&gt;" id="1P-0DzJTkieSUqBDdr5q-9">
          <mxCell style="rounded=1;whiteSpace=wrap;html=1;labelBackgroundColor=none;fillColor=#85BBF0;fontColor=#ffffff;align=center;arcSize=10;strokeColor=#78A8D8;metaEdit=1;metaData={&quot;c4Type&quot;:{&quot;editable&quot;:false}};points=[[0.25,0,0],[0.5,0,0],[0.75,0,0],[1,0.25,0],[1,0.5,0],[1,0.75,0],[0.75,1,0],[0.5,1,0],[0.25,1,0],[0,0.75,0],[0,0.5,0],[0,0.25,0]];dashed=1;" parent="1P-0DzJTkieSUqBDdr5q-1" vertex="1">
            <mxGeometry x="1040" y="160" width="160" height="110.00000000000001" as="geometry" />
          </mxCell>
        </object>
        <object placeholders="1" c4Name="Registration &amp; Profile Service" c4Type="Component" c4Technology="Spring Boot" c4Description="Description" label="&lt;b&gt;%c4Name%&lt;/b&gt;&lt;div&gt;[%c4Type%: %c4Technology%]&lt;/div&gt;&lt;br&gt;&lt;div&gt;%c4Description%&lt;/div&gt;" id="1P-0DzJTkieSUqBDdr5q-10">
          <mxCell style="rounded=1;whiteSpace=wrap;html=1;labelBackgroundColor=none;fillColor=#85BBF0;fontColor=#ffffff;align=center;arcSize=10;strokeColor=#78A8D8;metaEdit=1;metaData={&quot;c4Type&quot;:{&quot;editable&quot;:false}};points=[[0.25,0,0],[0.5,0,0],[0.75,0,0],[1,0.25,0],[1,0.5,0],[1,0.75,0],[0.75,1,0],[0.5,1,0],[0.25,1,0],[0,0.75,0],[0,0.5,0],[0,0.25,0]];dashed=1;" parent="1P-0DzJTkieSUqBDdr5q-1" vertex="1">
            <mxGeometry x="820" y="160" width="160" height="110.00000000000001" as="geometry" />
          </mxCell>
        </object>
        <object placeholders="1" c4Type="Database" c4Technology="Aurora DB" c4Description="Order Database holding Orders, Inventory, Fulfilment Details" label="%c4Type%&lt;div&gt;[Container:&amp;nbsp;%c4Technology%]&lt;/div&gt;&lt;br&gt;&lt;div&gt;%c4Description%&lt;/div&gt;" id="5SLStVS93iAB2YTDH9i8-0">
          <mxCell style="shape=cylinder;whiteSpace=wrap;html=1;boundedLbl=1;rounded=0;labelBackgroundColor=none;fillColor=#438DD5;fontSize=12;fontColor=#ffffff;align=center;strokeColor=#3C7FC0;metaEdit=1;points=[[0.5,0,0],[1,0.25,0],[1,0.5,0],[1,0.75,0],[0.5,1,0],[0,0.75,0],[0,0.5,0],[0,0.25,0]];metaData={&quot;c4Type&quot;:{&quot;editable&quot;:false}};" parent="1P-0DzJTkieSUqBDdr5q-1" vertex="1">
            <mxGeometry x="1590" y="710" width="160" height="140" as="geometry" />
          </mxCell>
        </object>
        <object placeholders="1" c4Type="Database" c4Technology="DynamoDB" c4Description="Retail Database holding Products, Promotions, Customer, Supplier, Partner Information, Exchange Rates" label="%c4Type%&lt;div&gt;[Container:&amp;nbsp;%c4Technology%]&lt;/div&gt;&lt;br&gt;&lt;div&gt;%c4Description%&lt;/div&gt;" id="5SLStVS93iAB2YTDH9i8-1">
          <mxCell style="shape=cylinder;whiteSpace=wrap;html=1;boundedLbl=1;rounded=0;labelBackgroundColor=none;fillColor=#438DD5;fontSize=12;fontColor=#ffffff;align=center;strokeColor=#3C7FC0;metaEdit=1;points=[[0.5,0,0],[1,0.25,0],[1,0.5,0],[1,0.75,0],[0.5,1,0],[0,0.75,0],[0,0.5,0],[0,0.25,0]];metaData={&quot;c4Type&quot;:{&quot;editable&quot;:false}};" parent="1P-0DzJTkieSUqBDdr5q-1" vertex="1">
            <mxGeometry x="410" y="720" width="160" height="140" as="geometry" />
          </mxCell>
        </object>
        <object placeholders="1" c4Type="Relationship" c4Technology="JDBC" c4Description="update and get flight details" label="&lt;div style=&quot;text-align: left&quot;&gt;&lt;div style=&quot;text-align: center&quot;&gt;&lt;b&gt;%c4Description%&lt;/b&gt;&lt;/div&gt;&lt;div style=&quot;text-align: center&quot;&gt;[%c4Technology%]&lt;/div&gt;&lt;/div&gt;" id="5SLStVS93iAB2YTDH9i8-2">
          <mxCell style="edgeStyle=none;html=1;entryX=0.5;entryY=0;jettySize=auto;orthogonalLoop=1;strokeColor=#707070;strokeWidth=2;fontColor=#707070;jumpStyle=none;dashed=1;metaEdit=1;metaData={&quot;c4Type&quot;:{&quot;editable&quot;:false}};exitX=0.5;exitY=1;exitDx=0;exitDy=0;exitPerimeter=0;entryDx=0;entryDy=0;entryPerimeter=0;curved=1;" parent="1P-0DzJTkieSUqBDdr5q-1" source="1P-0DzJTkieSUqBDdr5q-3" target="5SLStVS93iAB2YTDH9i8-1" edge="1">
            <mxGeometry width="160" relative="1" as="geometry">
              <mxPoint x="380" y="510" as="sourcePoint" />
              <mxPoint x="540" y="510" as="targetPoint" />
              <Array as="points">
                <mxPoint x="120" y="570" />
              </Array>
            </mxGeometry>
          </mxCell>
        </object>
        <object placeholders="1" c4Type="Relationship" c4Technology="JDBC" c4Description="update and get flight details" label="&lt;div style=&quot;text-align: left&quot;&gt;&lt;div style=&quot;text-align: center&quot;&gt;&lt;b&gt;%c4Description%&lt;/b&gt;&lt;/div&gt;&lt;div style=&quot;text-align: center&quot;&gt;[%c4Technology%]&lt;/div&gt;&lt;/div&gt;" id="5SLStVS93iAB2YTDH9i8-3">
          <mxCell style="edgeStyle=none;html=1;jettySize=auto;orthogonalLoop=1;strokeColor=#707070;strokeWidth=2;fontColor=#707070;jumpStyle=none;dashed=1;metaEdit=1;metaData={&quot;c4Type&quot;:{&quot;editable&quot;:false}};exitX=0.5;exitY=1;exitDx=0;exitDy=0;exitPerimeter=0;curved=1;" parent="1P-0DzJTkieSUqBDdr5q-1" source="1P-0DzJTkieSUqBDdr5q-8" edge="1">
            <mxGeometry x="-0.4946" y="22" width="160" relative="1" as="geometry">
              <mxPoint x="120" y="280" as="sourcePoint" />
              <mxPoint x="490" y="720" as="targetPoint" />
              <Array as="points">
                <mxPoint x="240" y="550" />
              </Array>
              <mxPoint x="-1" y="1" as="offset" />
            </mxGeometry>
          </mxCell>
        </object>
        <object placeholders="1" c4Type="Relationship" c4Technology="JDBC" c4Description="update and get flight details" label="&lt;div style=&quot;text-align: left&quot;&gt;&lt;div style=&quot;text-align: center&quot;&gt;&lt;b&gt;%c4Description%&lt;/b&gt;&lt;/div&gt;&lt;div style=&quot;text-align: center&quot;&gt;[%c4Technology%]&lt;/div&gt;&lt;/div&gt;" id="x2wFFMvKJxT__Ha-9-Fj-0">
          <mxCell style="edgeStyle=none;html=1;jettySize=auto;orthogonalLoop=1;strokeColor=#707070;strokeWidth=2;fontColor=#707070;jumpStyle=none;dashed=1;metaEdit=1;metaData={&quot;c4Type&quot;:{&quot;editable&quot;:false}};exitX=0.5;exitY=1;exitDx=0;exitDy=0;exitPerimeter=0;curved=1;entryX=0.5;entryY=0;entryDx=0;entryDy=0;entryPerimeter=0;" edge="1" parent="1P-0DzJTkieSUqBDdr5q-1" source="1P-0DzJTkieSUqBDdr5q-7" target="5SLStVS93iAB2YTDH9i8-1">
            <mxGeometry x="-0.634" y="10" width="160" relative="1" as="geometry">
              <mxPoint x="310" y="280" as="sourcePoint" />
              <mxPoint x="350" y="640" as="targetPoint" />
              <Array as="points">
                <mxPoint x="330" y="550" />
              </Array>
              <mxPoint as="offset" />
            </mxGeometry>
          </mxCell>
        </object>
        <object placeholders="1" c4Type="Relationship" c4Technology="JDBC" c4Description="update and get flight details" label="&lt;div style=&quot;text-align: left&quot;&gt;&lt;div style=&quot;text-align: center&quot;&gt;&lt;b&gt;%c4Description%&lt;/b&gt;&lt;/div&gt;&lt;div style=&quot;text-align: center&quot;&gt;[%c4Technology%]&lt;/div&gt;&lt;/div&gt;" id="x2wFFMvKJxT__Ha-9-Fj-1">
          <mxCell style="edgeStyle=none;html=1;jettySize=auto;orthogonalLoop=1;strokeColor=#707070;strokeWidth=2;fontColor=#707070;jumpStyle=none;dashed=1;metaEdit=1;metaData={&quot;c4Type&quot;:{&quot;editable&quot;:false}};curved=1;" edge="1" parent="1P-0DzJTkieSUqBDdr5q-1" source="1P-0DzJTkieSUqBDdr5q-6">
            <mxGeometry width="160" relative="1" as="geometry">
              <mxPoint x="500" y="280" as="sourcePoint" />
              <mxPoint x="480" y="720" as="targetPoint" />
              <Array as="points">
                <mxPoint x="510" y="580" />
              </Array>
            </mxGeometry>
          </mxCell>
        </object>
        <object placeholders="1" c4Type="Relationship" c4Technology="JDBC" c4Description="update and get flight details" label="&lt;div style=&quot;text-align: left&quot;&gt;&lt;div style=&quot;text-align: center&quot;&gt;&lt;b&gt;%c4Description%&lt;/b&gt;&lt;/div&gt;&lt;div style=&quot;text-align: center&quot;&gt;[%c4Technology%]&lt;/div&gt;&lt;/div&gt;" id="x2wFFMvKJxT__Ha-9-Fj-2">
          <mxCell style="edgeStyle=none;html=1;jettySize=auto;orthogonalLoop=1;strokeColor=#707070;strokeWidth=2;fontColor=#707070;jumpStyle=none;dashed=1;metaEdit=1;metaData={&quot;c4Type&quot;:{&quot;editable&quot;:false}};curved=1;exitX=0.5;exitY=1;exitDx=0;exitDy=0;exitPerimeter=0;" edge="1" parent="1P-0DzJTkieSUqBDdr5q-1" source="1P-0DzJTkieSUqBDdr5q-10">
            <mxGeometry width="160" relative="1" as="geometry">
              <mxPoint x="664.3835616438355" y="280" as="sourcePoint" />
              <mxPoint x="480" y="710" as="targetPoint" />
              <Array as="points">
                <mxPoint x="730" y="660" />
              </Array>
            </mxGeometry>
          </mxCell>
        </object>
        <object placeholders="1" c4Type="Relationship" c4Technology="JDBC" c4Description="update and get flight details" label="&lt;div style=&quot;text-align: left&quot;&gt;&lt;div style=&quot;text-align: center&quot;&gt;&lt;b&gt;%c4Description%&lt;/b&gt;&lt;/div&gt;&lt;div style=&quot;text-align: center&quot;&gt;[%c4Technology%]&lt;/div&gt;&lt;/div&gt;" id="x2wFFMvKJxT__Ha-9-Fj-3">
          <mxCell style="edgeStyle=none;html=1;jettySize=auto;orthogonalLoop=1;strokeColor=#707070;strokeWidth=2;fontColor=#707070;jumpStyle=none;dashed=1;metaEdit=1;metaData={&quot;c4Type&quot;:{&quot;editable&quot;:false}};curved=1;exitX=0.5;exitY=1;exitDx=0;exitDy=0;exitPerimeter=0;" edge="1" parent="1P-0DzJTkieSUqBDdr5q-1" source="1P-0DzJTkieSUqBDdr5q-9">
            <mxGeometry width="160" relative="1" as="geometry">
              <mxPoint x="910" y="280" as="sourcePoint" />
              <mxPoint x="490" y="720" as="targetPoint" />
              <Array as="points">
                <mxPoint x="880" y="780" />
              </Array>
            </mxGeometry>
          </mxCell>
        </object>
        <object placeholders="1" c4Type="Relationship" c4Technology="JDBC" c4Description="update and get flight details" label="&lt;div style=&quot;text-align: left&quot;&gt;&lt;div style=&quot;text-align: center&quot;&gt;&lt;b&gt;%c4Description%&lt;/b&gt;&lt;/div&gt;&lt;div style=&quot;text-align: center&quot;&gt;[%c4Technology%]&lt;/div&gt;&lt;/div&gt;" id="x2wFFMvKJxT__Ha-9-Fj-4">
          <mxCell style="edgeStyle=none;html=1;entryX=0.5;entryY=0;jettySize=auto;orthogonalLoop=1;strokeColor=#707070;strokeWidth=2;fontColor=#707070;jumpStyle=none;dashed=1;metaEdit=1;metaData={&quot;c4Type&quot;:{&quot;editable&quot;:false}};exitX=0.5;exitY=1;exitDx=0;exitDy=0;exitPerimeter=0;entryDx=0;entryDy=0;entryPerimeter=0;curved=1;" edge="1" parent="1P-0DzJTkieSUqBDdr5q-1" source="1P-0DzJTkieSUqBDdr5q-2" target="5SLStVS93iAB2YTDH9i8-0">
            <mxGeometry width="160" relative="1" as="geometry">
              <mxPoint x="120" y="280" as="sourcePoint" />
              <mxPoint x="500" y="730" as="targetPoint" />
              <Array as="points">
                <mxPoint x="1460" y="520" />
              </Array>
            </mxGeometry>
          </mxCell>
        </object>
        <object placeholders="1" c4Type="Relationship" c4Technology="JDBC" c4Description="update and get flight details" label="&lt;div style=&quot;text-align: left&quot;&gt;&lt;div style=&quot;text-align: center&quot;&gt;&lt;b&gt;%c4Description%&lt;/b&gt;&lt;/div&gt;&lt;div style=&quot;text-align: center&quot;&gt;[%c4Technology%]&lt;/div&gt;&lt;/div&gt;" id="x2wFFMvKJxT__Ha-9-Fj-5">
          <mxCell style="edgeStyle=none;html=1;entryX=0.5;entryY=0;jettySize=auto;orthogonalLoop=1;strokeColor=#707070;strokeWidth=2;fontColor=#707070;jumpStyle=none;dashed=1;metaEdit=1;metaData={&quot;c4Type&quot;:{&quot;editable&quot;:false}};exitX=0.5;exitY=1;exitDx=0;exitDy=0;exitPerimeter=0;entryDx=0;entryDy=0;entryPerimeter=0;curved=1;" edge="1" parent="1P-0DzJTkieSUqBDdr5q-1" source="1P-0DzJTkieSUqBDdr5q-5" target="5SLStVS93iAB2YTDH9i8-0">
            <mxGeometry width="160" relative="1" as="geometry">
              <mxPoint x="1530" y="300" as="sourcePoint" />
              <mxPoint x="1680" y="720" as="targetPoint" />
              <Array as="points">
                <mxPoint x="1840" y="540" />
              </Array>
            </mxGeometry>
          </mxCell>
        </object>
      </root>
    </mxGraphModel>
  </diagram>
  <diagram id="EgkWoiuMO4Q2yGgr3rho" name="Page-7">
    <mxGraphModel dx="782" dy="412" grid="1" gridSize="10" guides="1" tooltips="1" connect="1" arrows="1" fold="1" page="1" pageScale="1" pageWidth="850" pageHeight="1100" math="0" shadow="0">
      <root>
        <mxCell id="jgJM22GgQDgE5s88cfTh-0" />
        <mxCell id="jgJM22GgQDgE5s88cfTh-1" parent="jgJM22GgQDgE5s88cfTh-0" />
        <object placeholders="1" c4Name="Flight Package &amp; Collection Service" c4Type="Component" c4Technology="technology" c4Description="Description" label="&lt;b&gt;%c4Name%&lt;/b&gt;&lt;div&gt;[%c4Type%: %c4Technology%]&lt;/div&gt;&lt;br&gt;&lt;div&gt;%c4Description%&lt;/div&gt;" id="jgJM22GgQDgE5s88cfTh-2">
          <mxCell style="rounded=1;whiteSpace=wrap;html=1;labelBackgroundColor=none;fillColor=#85BBF0;fontColor=#ffffff;align=center;arcSize=10;strokeColor=#78A8D8;metaEdit=1;metaData={&quot;c4Type&quot;:{&quot;editable&quot;:false}};points=[[0.25,0,0],[0.5,0,0],[0.75,0,0],[1,0.25,0],[1,0.5,0],[1,0.75,0],[0.75,1,0],[0.5,1,0],[0.25,1,0],[0,0.75,0],[0,0.5,0],[0,0.25,0]];dashed=1;" parent="jgJM22GgQDgE5s88cfTh-1" vertex="1">
            <mxGeometry x="320" y="190" width="160" height="110.00000000000001" as="geometry" />
          </mxCell>
        </object>
        <object placeholders="1" c4Name="Ground Delivery Service" c4Type="Component" c4Technology="technology" c4Description="Description" label="&lt;b&gt;%c4Name%&lt;/b&gt;&lt;div&gt;[%c4Type%: %c4Technology%]&lt;/div&gt;&lt;br&gt;&lt;div&gt;%c4Description%&lt;/div&gt;" id="jgJM22GgQDgE5s88cfTh-3">
          <mxCell style="rounded=1;whiteSpace=wrap;html=1;labelBackgroundColor=none;fillColor=#85BBF0;fontColor=#ffffff;align=center;arcSize=10;strokeColor=#78A8D8;metaEdit=1;metaData={&quot;c4Type&quot;:{&quot;editable&quot;:false}};points=[[0.25,0,0],[0.5,0,0],[0.75,0,0],[1,0.25,0],[1,0.5,0],[1,0.75,0],[0.75,1,0],[0.5,1,0],[0.25,1,0],[0,0.75,0],[0,0.5,0],[0,0.25,0]];dashed=1;" parent="jgJM22GgQDgE5s88cfTh-1" vertex="1">
            <mxGeometry x="550" y="190" width="160" height="110.00000000000001" as="geometry" />
          </mxCell>
        </object>
        <object placeholders="1" c4Name="Reconciliation Service" c4Type="Component" c4Technology="technology" c4Description="Description" label="&lt;b&gt;%c4Name%&lt;/b&gt;&lt;div&gt;[%c4Type%: %c4Technology%]&lt;/div&gt;&lt;br&gt;&lt;div&gt;%c4Description%&lt;/div&gt;" id="jgJM22GgQDgE5s88cfTh-4">
          <mxCell style="rounded=1;whiteSpace=wrap;html=1;labelBackgroundColor=none;fillColor=#85BBF0;fontColor=#ffffff;align=center;arcSize=10;strokeColor=#78A8D8;metaEdit=1;metaData={&quot;c4Type&quot;:{&quot;editable&quot;:false}};points=[[0.25,0,0],[0.5,0,0],[0.75,0,0],[1,0.25,0],[1,0.5,0],[1,0.75,0],[0.75,1,0],[0.5,1,0],[0.25,1,0],[0,0.75,0],[0,0.5,0],[0,0.25,0]];dashed=1;" parent="jgJM22GgQDgE5s88cfTh-1" vertex="1">
            <mxGeometry x="790" y="190" width="160" height="110.00000000000001" as="geometry" />
          </mxCell>
        </object>
      </root>
    </mxGraphModel>
  </diagram>
</mxfile>
